<?xml version="1.0" encoding="utf-8"?>
<!-- Generator: Adobe Illustrator 27.0.0, SVG Export Plug-In . SVG Version: 6.00 Build 0)  -->
<svg version="1.1" id="Layer_1" xmlns="http://www.w3.org/2000/svg" xmlns:xlink="http://www.w3.org/1999/xlink" x="0px" y="0px"
	 viewBox="0 0 3000 2286.5" style="enable-background:new 0 0 3000 2286.5;" xml:space="preserve">
<style type="text/css">
	.st0{fill:#D1F0E7;}
	.st1{fill:#9FE6D1;}
	.st2{fill:#36BF91;}
	.st3{fill:#353640;}
	.st4{fill:#F72E70;}
	.st5{fill:#E1ECF2;}
	.st6{fill:#FFFFFF;}
	.st7{fill:#D0D3D4;}
	.st8{fill:#949899;}
	.st9{fill:#7DA3FB;}
	.st10{fill:#647EDD;}
	.st11{fill:#FD3E42;}
	.st12{fill:#FFE072;}
	.st13{fill:#B6D563;}
	.st14{fill:#5630AD;}
	.st15{fill:#FCCAC3;}
	.st16{fill:#2A1D19;}
	.st17{fill:#FFAF18;}
	.st18{fill:#F59A8E;}
	.st19{fill:#2C4BFF;}
	.st20{fill:#F2889E;}
</style>
<path class="st0" d="M47.6,1478c0,0,54.4,74.4,2.9,197.5c-51.5,123.1,71.5,65.8,93,174.6c21.5,108.7,2.7,146,85.9,180.3
	c83.1,34.3,77.3,201.9,77.3,201.9h340.6c0,0-84-122.4-74.7-256.6c9.4-134.2-177.2-89.8-162.9-217.2c14.3-127.4-148.8-63-173.1-183.2
	C212.2,1455.1,47.6,1478,47.6,1478z"/>
<path class="st1" d="M476.9,2234.8c-0.9,0-1.7-0.4-2.1-1.1c-0.4-0.6-39.1-57.7-26.2-133.7c9.6-56.5-10.1-99.8-53-119.9
	c-0.3-0.1-0.5-0.2-0.7-0.3c-6.2-2.9-13-5.2-20.2-7.1c-13.2-3.4-23.8-9.6-32.6-18.3l0,0c-27.9-16.6-103.1-11.7-103.9-11.6
	c-1.4,0.1-2.7-1-2.8-2.4c-0.1-1.4,1-2.7,2.4-2.8c2.8-0.2,62.7-4.1,96.3,7.5c-14.6-19.7-23.1-48-29.8-82.6
	c-49.8-43.2-117.4-30.8-118.1-30.7c-1.4,0.3-2.8-0.6-3-2c0,0,0,0,0,0c-0.3-1.4,0.6-2.8,2.1-3c0,0,0,0,0,0
	c0.7-0.1,66.4-12.2,117.5,27.9c-1.2-6.7-2.3-13.3-3.4-20c-0.3-1.6-0.6-3.3-0.8-5c-0.6-3.5-1.1-7.1-1.7-10.7
	c-6.1-39.9-25.6-49.9-48.3-61.4c-7.4-3.8-15-7.7-22.6-12.8c-0.1,0-0.2-0.1-0.2-0.2c-11-7.6-21.8-17.8-30.7-34.1
	c-42.4-40-114.5-19.8-115.2-19.6c-1.4,0.4-2.8-0.4-3.2-1.8c-0.4-1.4,0.4-2.8,1.8-3.2c0.8-0.2,19.1-5.5,43.2-5.6
	c27.1-0.2,50.3,6.4,68,19c-2.6-6-5-12.7-7.1-20.2c-28.1-98.3-64.9-138.8-65.2-139.2c-0.9-1.1-0.8-2.7,0.2-3.7c1-0.9,2.6-0.9,3.6,0.1
	c1.5,1.7,38,41.7,66.4,141.3c3.4,11.7,7.3,21.4,11.7,29.5c0.2,0.3,0.4,0.5,0.4,0.8c6.9,12.5,14.8,21.2,23.2,27.9
	c-12.4-49.2,5.4-114.7,6.2-117.6c0.4-1.4,1.9-2.2,3.2-1.8c1.3,0.4,2.1,1.8,1.8,3.1c-0.2,0.7-19.8,72.9-4.4,121.2
	c7,4.7,14.2,8.4,21.4,12c20,10.2,39,19.9,47.8,50.3c5.4-39.8,30.9-73.9,32.2-75.7c0.9-1.1,2.5-1.4,3.6-0.5c1.1,0.9,1.4,2.5,0.5,3.6
	c-0.4,0.5-37.6,50.4-31.5,98.2c0.3,1.7,0.5,3.3,0.8,4.9l0,0.1c0,0.1,0,0.2,0,0.3c1.5,9.3,3,18.1,4.6,26.3c0,0.1,0,0.2,0.1,0.3
	c4.6,23.9,9.7,43.3,16.6,59.3c11.4,26.6,27.4,41.7,50.1,47.5c5,1.3,9.9,2.8,14.7,4.7c-18.3-40.2-0.7-96.3,0.1-98.8
	c0.4-1.4,1.9-2.1,3.3-1.7c1.4,0.4,2.1,1.9,1.7,3.3l0,0c-0.2,0.6-19.4,62,2.4,100.4c45.1,21,65.7,66.3,55.7,125.3
	c-12.5,73.9,25,129.3,25.3,129.9c0.8,1.2,0.5,2.8-0.7,3.6C477.9,2234.7,477.4,2234.8,476.9,2234.8L476.9,2234.8z"/>
<path class="st2" d="M61.8,1863c0,0,39.7,56.2,139.1,49.1c99.4-7.1,29.5,66.3,101.4,107.4c71.9,41.1,102.7,36.7,107.2,103.7
	c4.5,67,124.5,102.8,124.5,102.8l-2.1,6.2H223.6c-6.3-21.7-18.7-39.5-49.6-46.2c-93.6-20.2-9.1-120.3-88.4-166.2
	C6.3,1974,61.8,1863,61.8,1863L61.8,1863z"/>
<path class="st1" d="M332.8,2234.8c-1.3,0-2.4-0.9-2.6-2.2c-0.1-0.9-0.3-1.8-0.4-2.7c-21.8-24.3-69.5-25.3-69.9-25.3
	c-1.4,0-2.6-1.2-2.6-2.6c0-1.4,1.2-2.5,2.6-2.6c1.9,0,44.8,0.9,69.3,22.6c-0.1-3.3,0-6.7,0.2-10c0.7-9.3-1-17.6-4.7-25.3
	c-0.1-0.2-0.2-0.4-0.3-0.7c-8.7-17.2-27.8-31.2-54-46c-0.3-0.1-0.6-0.3-0.8-0.5c-5.5-3.1-11.2-6.2-17.3-9.3c-0.1,0-0.1-0.1-0.2-0.1
	l0,0c-1.2-0.6-2.4-1.2-3.5-1.9c-32.1-15.5-75.9-1.2-76.3-1c-1.4,0.5-2.8-0.3-3.3-1.6c-0.5-1.4,0.3-2.8,1.6-3.3l0,0
	c1.5-0.5,30-9.9,58.7-5.3c-17.5-13.3-19.8-28.6-22.2-44.6c-0.9-5.8-1.7-11.7-3.3-17.7c-30.4-22.2-85.8-25.5-86.3-25.5
	c-1.4-0.1-2.5-1.3-2.4-2.7c0.1-1.4,1.3-2.5,2.7-2.4l0,0c2.2,0.1,51.3,3.1,83.4,22.7c-2.7-6.9-6.9-13.9-13.4-21.1
	c-0.2-0.1-0.3-0.3-0.4-0.4c-4.7-5-10.6-10.1-18-15.2c-63.9-44-83.6-79.4-84.4-80.9c-0.7-1.3-0.2-2.8,1-3.5c1.3-0.7,2.8-0.2,3.5,1
	c0.3,0.5,20.2,36,82.8,79.1c4.1,2.8,7.7,5.6,10.9,8.4c-10.5-38.9,16.5-78.5,17.8-80.3c0.8-1.2,2.5-1.4,3.6-0.6
	c1.1,0.8,1.4,2.4,0.6,3.6c-0.3,0.5-31.6,46.3-13.6,85.5c15.9,17.4,18.4,34.2,20.7,49.4c2.8,18.6,5.1,34.7,31.6,48.3
	c2.3,1.2,4.6,2.4,6.8,3.5c1.3,0.6,2.6,1.3,3.9,2.1l0,0c3.9,2,7.7,4.1,11.6,6.2c-15.2-45.3,7.9-86.9,8.9-88.8
	c0.7-1.2,2.3-1.6,3.6-0.9c1.2,0.7,1.6,2.2,1,3.4c-0.3,0.4-24.9,44.9-6.4,90.1c22,12.5,39.6,24.8,50.2,39.2
	c0.6-26.7,16.8-66.3,17.6-68.2c0.5-1.3,2.1-2,3.4-1.4c1.3,0.5,2,2.1,1.4,3.4c-0.2,0.5-21.5,52.3-16.5,75.8c4.1,8.4,6,17.5,5.2,27.7
	c-0.5,6.6-0.3,13.2,0.7,19.4c0.2,1.4-0.8,2.7-2.2,3C333,2234.8,332.9,2234.8,332.8,2234.8L332.8,2234.8z"/>
<path class="st2" d="M2414.4,2029.6c8.1,3.1,150.2-94.1,334.5,42.6C2748.9,2072.3,2645.1,2115.4,2414.4,2029.6z"/>
<path class="st2" d="M2225.3,2250.6c-1.4,0-2.6-1.2-2.6-2.6c0-0.3,0-0.5,0.1-0.8c0.2-0.7,22.7-69.9,98.9-146
	c44.7-44.6,98.9-82.9,161.1-113.8c77.7-38.6,168.1-65.6,268.8-80.4c1.4-0.2,2.7,0.8,2.9,2.2s-0.8,2.7-2.2,2.9
	c-226.7,33.3-357.3,123.2-427,192.8c-75.3,75.2-97.4,143.2-97.6,143.9C2227.5,2249.9,2226.5,2250.6,2225.3,2250.6L2225.3,2250.6z
	 M2293.8,1841c0,0-91.6,135.8-48.2,310.3C2245.6,2151.3,2318.9,2052.9,2293.8,1841z"/>
<path class="st2" d="M2291.2,2204.4c0,0,82.1,34.9,146.1-3.3C2437.3,2201.1,2378.9,2176.3,2291.2,2204.4z M2501.1,1829.6
	c0,0-75,45.5-67.9,156.9C2433.2,1986.5,2494.5,1932.8,2501.1,1829.6z M2742.4,1963.9L2742.4,1963.9c-69.7,0-122.4-23.8-122.9-24
	c-1.3-0.6-1.9-2.1-1.3-3.4c0.1-0.3,0.3-0.6,0.6-0.8c45.5-43.6,102.2-65.6,168.5-65.6c72.3,0,130.5,27.2,131,27.5
	c1.3,0.6,1.8,2.2,1.2,3.5c-0.2,0.3-0.4,0.7-0.7,0.9C2868.3,1943,2809,1963.9,2742.4,1963.9L2742.4,1963.9z M2625.3,1936.7
	c12.9,5.2,59,22,117.2,22h0c63.8,0,120.9-19.6,169.8-58.2c-14-5.9-64.4-25.3-125-25.3C2723.8,1875.2,2669.3,1895.9,2625.3,1936.7z"
	/>
<path class="st3" d="M1147.2,539.2c-1.3,0-2.3-0.9-2.6-2.1c-4.4-25-26.1-43.2-51.5-43.2c-25.4,0-47.1,18.2-51.5,43.2
	c-0.1,0.7-0.5,1.3-1.1,1.7c-0.6,0.4-1.3,0.5-2,0.4c-32.8-6.8-63.8-19.6-91.9-38.1c-1.2-0.8-1.5-2.4-0.7-3.6c0,0,0,0,0-0.1
	c14.5-20.8,12-49-5.9-66.9c-9.9-9.9-23-15.3-37-15.3c-10.8,0-21.1,3.2-29.9,9.4c-1.2,0.8-2.8,0.5-3.6-0.6c0,0,0,0,0-0.1
	c-18.5-28.2-31.3-59.1-38.1-92c-0.3-1.4,0.6-2.8,2-3.1c0,0,0.1,0,0.1,0c25-4.4,43.2-26.1,43.2-51.5c0-25.4-18.2-47.1-43.2-51.5
	c-0.7-0.1-1.3-0.5-1.7-1.1c-0.4-0.6-0.5-1.3-0.4-2c6.8-32.9,19.6-63.8,38.1-92c0.8-1.2,2.4-1.5,3.6-0.7c0,0,0,0,0.1,0
	c8.8,6.2,19.1,9.4,29.9,9.4c14,0,27.1-5.4,37-15.3c18-18,20.5-46.1,5.9-66.9c-0.8-1.2-0.5-2.8,0.6-3.6c0,0,0,0,0.1,0
	c28.2-18.5,59.1-31.3,91.9-38.1c1.4-0.3,2.8,0.6,3.1,2c0,0,0,0,0,0.1c4.4,25,26.1,43.2,51.5,43.2c25.4,0,47.1-18.2,51.5-43.2
	c0.3-1.4,1.6-2.4,3-2.1c0,0,0,0,0.1,0c32.9,6.8,63.8,19.6,92,38.1c1.2,0.8,1.5,2.4,0.7,3.6c0,0,0,0,0,0.1
	c-14.5,20.8-12.1,49,5.9,66.9c9.9,9.9,23,15.3,37,15.3c10.8,0,21.1-3.2,29.9-9.4c1.2-0.8,2.8-0.5,3.6,0.6c0,0,0,0,0,0.1
	c18.5,28.2,31.3,59.1,38.1,91.9c0.3,1.4-0.6,2.8-2,3.1c0,0-0.1,0-0.1,0c-25,4.4-43.2,26.1-43.2,51.5c0,25.4,18.2,47.1,43.2,51.5
	c0.7,0.1,1.3,0.5,1.7,1.1c0.4,0.6,0.5,1.3,0.4,2c-6.8,32.9-19.6,63.8-38.1,92c-0.8,1.2-2.4,1.5-3.6,0.7c0,0,0,0-0.1,0
	c-8.8-6.2-19.2-9.4-29.9-9.4c-14,0-27.1,5.4-37,15.3c-18,18-20.5,46.1-5.9,66.9c0.8,1.2,0.5,2.8-0.6,3.6c0,0,0,0-0.1,0
	c-28.2,18.5-59.1,31.3-92,38.1C1147.6,539.2,1147.4,539.2,1147.2,539.2L1147.2,539.2z M1093.2,488.7c27.1,0,50.2,18.7,56.1,44.8
	c30.4-6.6,59.1-18.5,85.4-35.4c-14.3-22.6-11.1-52.2,8-71.3c10.9-10.9,25.3-16.9,40.7-16.9c11,0,21.5,3.1,30.7,8.9
	c16.9-26.3,28.8-55,35.4-85.4c-26.1-5.9-44.8-29.1-44.8-56.1c0-27.1,18.7-50.3,44.8-56.1c-6.6-30.4-18.5-59.1-35.4-85.4
	c-9.2,5.8-19.7,8.8-30.7,8.8c-15.4,0-29.8-6-40.7-16.8c-19.1-19.1-22.3-48.7-8-71.3c-26.3-16.9-55-28.8-85.4-35.4
	c-5.9,26.1-29,44.8-56.1,44.8c-27.1,0-50.3-18.7-56.1-44.8c-30.4,6.6-59.1,18.5-85.4,35.4c14.3,22.6,11.1,52.2-8,71.3
	c-10.9,10.9-25.3,16.8-40.7,16.8c-11,0-21.5-3.1-30.7-8.9c-16.9,26.3-28.8,55-35.4,85.4c26.1,5.9,44.8,29.1,44.8,56.1
	c0,27.1-18.7,50.2-44.8,56.1c6.6,30.4,18.5,59.1,35.4,85.4c9.2-5.8,19.7-8.8,30.7-8.8c15.4,0,29.8,6,40.7,16.8
	c19.1,19.1,22.3,48.7,8,71.3c26.3,16.9,55,28.8,85.4,35.4C1042.9,507.4,1066.1,488.7,1093.2,488.7L1093.2,488.7z"/>
<path class="st3" d="M1093.2,402.2c-68.9,0-125-56.1-125-125s56.1-125,125-125c68.9,0,125,56.1,125,125S1162.1,402.2,1093.2,402.2z
	 M1093.2,157.4c-66.1,0-119.8,53.7-119.8,119.8S1027.1,397,1093.2,397c66.1,0,119.8-53.7,119.8-119.8S1159.2,157.4,1093.2,157.4z"/>
<path class="st4" d="M1025.9,820.3c-1.3,0-2.3-0.9-2.6-2.1c-1.3-7.2-7.5-12.4-14.8-12.4c-7.3,0-13.5,5.2-14.8,12.4
	c-0.2,1.4-1.6,2.4-3,2.1c0,0-0.1,0-0.1,0c-10.7-2.2-20.9-6.5-30.1-12.5c-1.2-0.8-1.5-2.4-0.8-3.6c0,0,0,0,0-0.1
	c4.2-6,3.5-14.1-1.7-19.2c-2.8-2.8-6.6-4.4-10.6-4.4c-3.1,0-6.1,0.9-8.6,2.7c-1.2,0.8-2.8,0.5-3.6-0.6c0,0,0,0,0-0.1
	c-6-9.2-10.3-19.4-12.5-30.1c-0.3-1.4,0.6-2.8,2-3.1c0,0,0,0,0.1,0c7.2-1.3,12.4-7.5,12.4-14.8c0-7.3-5.2-13.5-12.4-14.8
	c-1.4-0.3-2.4-1.6-2.1-3c0,0,0,0,0-0.1c2.2-10.7,6.5-21,12.5-30.1c0.8-1.2,2.4-1.5,3.6-0.7c0,0,0,0,0.1,0c2.5,1.8,5.5,2.7,8.6,2.7
	c4,0,7.8-1.6,10.6-4.4c5.2-5.1,5.9-13.2,1.7-19.2c-0.8-1.2-0.5-2.8,0.6-3.6c0,0,0,0,0.1,0c9.2-6,19.4-10.3,30.1-12.5
	c1.4-0.3,2.8,0.6,3.1,2c0,0,0,0,0,0.1c1.3,7.2,7.5,12.4,14.8,12.4c7.3,0,13.5-5.2,14.8-12.4c0.1-0.7,0.5-1.3,1.1-1.7
	c0.6-0.4,1.3-0.5,2-0.4c10.7,2.2,20.9,6.5,30.1,12.5c1.2,0.8,1.5,2.4,0.7,3.6c0,0,0,0,0,0.1c-4.2,6-3.5,14.1,1.7,19.2
	c2.8,2.8,6.6,4.4,10.6,4.4c3.1,0,6.1-0.9,8.6-2.7c1.2-0.8,2.8-0.5,3.6,0.6c0,0,0,0,0,0.1c6,9.2,10.3,19.4,12.5,30.1
	c0.3,1.4-0.6,2.8-2,3.1c0,0,0,0-0.1,0c-7.2,1.3-12.4,7.5-12.4,14.8c0,7.3,5.2,13.5,12.4,14.8c0.7,0.1,1.3,0.5,1.7,1.1
	c0.4,0.6,0.5,1.3,0.4,2c-2.2,10.7-6.5,20.9-12.5,30.1c-0.8,1.2-2.4,1.5-3.6,0.7c0,0,0,0-0.1,0c-2.5-1.8-5.5-2.7-8.6-2.7
	c-4,0-7.8,1.6-10.6,4.4c-5.2,5.1-5.9,13.2-1.7,19.2c0.8,1.2,0.5,2.8-0.6,3.6c0,0,0,0-0.1,0c-9.2,6-19.4,10.2-30.1,12.5
	C1026.3,820.3,1026.1,820.3,1025.9,820.3L1025.9,820.3z M1008.6,800.6c8.8,0,16.6,5.7,19.3,14c8.4-2,16.4-5.3,23.8-9.9
	c-4-7.8-2.5-17.3,3.7-23.5c3.8-3.8,8.9-5.9,14.3-5.9c3.3,0,6.4,0.8,9.2,2.2c4.5-7.3,7.8-15.4,9.9-23.8c-8.4-2.7-14.1-10.5-14-19.3
	c0-8.8,5.7-16.6,14-19.2c-2-8.4-5.3-16.4-9.9-23.8c-2.9,1.5-6,2.2-9.2,2.2c-5.4,0-10.5-2.1-14.3-5.9c-6.2-6.2-7.7-15.7-3.7-23.5
	c-7.3-4.5-15.4-7.9-23.8-9.9c-2.6,8.3-10.3,14-19.3,14c-8.8,0-16.6-5.7-19.2-14c-8.4,2-16.4,5.3-23.8,9.9c4,7.8,2.5,17.3-3.7,23.5
	c-3.8,3.8-8.9,5.9-14.3,5.9c-3.3,0-6.4-0.8-9.2-2.2c-4.5,7.3-7.8,15.4-9.9,23.8c8.4,2.7,14,10.5,14,19.2c0,8.8-5.7,16.6-14,19.3
	c2,8.4,5.3,16.4,9.9,23.8c2.9-1.5,6-2.2,9.2-2.2c5.4,0,10.5,2.1,14.3,5.9c6.2,6.2,7.7,15.7,3.7,23.5c7.3,4.5,15.4,7.8,23.8,9.9
	C992,806.3,999.8,800.6,1008.6,800.6L1008.6,800.6z"/>
<path class="st4" d="M1008.6,776.4c-23.1,0-41.8-18.8-41.8-41.8c0-23.1,18.8-41.8,41.8-41.8c23.1,0,41.8,18.8,41.8,41.8
	C1050.4,757.6,1031.7,776.4,1008.6,776.4z M1008.6,697.9c-20.2,0-36.7,16.4-36.7,36.7c0,20.2,16.4,36.7,36.7,36.7
	c20.2,0,36.7-16.4,36.7-36.7C1045.2,714.4,1028.8,697.9,1008.6,697.9z"/>
<path class="st3" d="M1153.4,402.1h1717.1v1114.7H1153.4V402.1z"/>
<path class="st5" d="M1120.5,370.6h1717.1v1114.7H1120.5V370.6z"/>
<path class="st6" d="M1360.6,781.1H1800c18.4,0,33.4,15,33.4,33.4v439.4c0,18.4-15,33.4-33.4,33.4h-439.4c-18.4,0-33.4-15-33.4-33.4
	V814.5C1327.2,796,1342.1,781.1,1360.6,781.1z"/>
<path class="st7" d="M1368.5,1243.3c0,0,69.6-231.8,114.6-242.5c45.1-10.7,72.2,157.3,107.7,157.3c35.6,0,28.7-105.4,70.2-105.4
	c35.1,0,109,145.6,131,190.7L1368.5,1243.3L1368.5,1243.3z"/>
<circle class="st7" cx="1664.6" cy="909" r="46.1"/>
<path class="st6" d="M1944,833.9h686.8v26.7H1944V833.9z M1944,927.3h686.8V954H1944V927.3z M1944,1020.8h686.8v26.7H1944V1020.8z
	 M1944,1114.3h612.4v26.7H1944V1114.3z M1944,1207.8h520.8v26.7H1944L1944,1207.8z"/>
<path class="st8" d="M2643,715.2h-801.3c-48,0-87-39-87-87c0-48,39-87,87-87H2643c48,0,87,39,87,87
	C2730,676.2,2690.9,715.2,2643,715.2L2643,715.2z M1841.7,546.3c-45.1,0-81.8,36.7-81.8,81.8c0,45.1,36.7,81.8,81.8,81.8H2643
	c45.1,0,81.8-36.7,81.8-81.8c0-45.1-36.7-81.8-81.8-81.8H1841.7L1841.7,546.3z"/>
<path class="st9" d="M1120.5,241.8h1717.1v128.8H1120.5V241.8z"/>
<path class="st6" d="M2563.5,286.2h40.1v40.1h-40.1V286.2z M2641.5,286.2h40.1v40.1h-40.1V286.2z M2719.5,286.2h40.1v40.1h-40.1
	V286.2z"/>
<path class="st10" d="M1250.2,420.7h237.5v26.8h-237.5V420.7z M1622.3,420.7h237.5v26.8h-237.5V420.7z M1994.3,420.7h237.5v26.8
	h-237.5V420.7z"/>
<circle class="st10" cx="2608.9" cy="434.1" r="9.1"/>
<circle class="st10" cx="2653.8" cy="434.1" r="9.1"/>
<circle class="st10" cx="2698.7" cy="434.1" r="9.1"/>
<path class="st6" d="M2394,1720.4h497.2c10.2,0,18.6-8.4,18.6-18.6v-309.6c0-10.2-8.4-18.6-18.6-18.6H2394
	c-10.2,0-18.6,8.4-18.6,18.6v309.6C2375.4,1712,2383.8,1720.4,2394,1720.4z"/>
<path class="st3" d="M2891.2,1723H2394c-11.7,0-21.2-9.5-21.2-21.2v-309.6c0-11.7,9.5-21.2,21.2-21.2h497.2
	c11.7,0,21.2,9.5,21.2,21.2v309.6C2912.4,1713.5,2902.9,1723,2891.2,1723z M2394,1376.2c-8.8,0-16,7.2-16,16v309.6
	c0,8.8,7.2,16,16,16h497.2c8.8,0,16-7.2,16-16v-309.6c0-8.8-7.2-16-16-16H2394z"/>
<path class="st11" d="M2580.3,1593.7h156v10.4h-156V1593.7z"/>
<path class="st3" d="M2670.5,1628.3h-32.4v10.4h32.4V1628.3z M2670.5,1663h109.6v10.4h-109.6V1663z"/>
<path class="st11" d="M2617.3,1489.8h76.7v10.4h-76.7V1489.8z"/>
<path class="st12" d="M2578,1524.5h34.4v10.4H2578V1524.5z"/>
<path class="st3" d="M2653.2,1559.1h73.6v10.4h-73.6V1559.1z M2670.5,1420.6h101.1v10.4h-101.1V1420.6z"/>
<path class="st12" d="M2670.5,1455.2h146.7v10.4h-146.7V1455.2z"/>
<path class="st11" d="M2654.4,1420.6h-61v10.4h61V1420.6z"/>
<path class="st12" d="M2500.1,1593.7h61.3v10.4h-61.3V1593.7z M2500.1,1628.3h109.6v10.4h-109.6V1628.3z"/>
<path class="st11" d="M2500.1,1663h109.6v10.4h-109.6V1663z"/>
<path class="st12" d="M2500.1,1489.8h96.3v10.4h-96.3V1489.8z"/>
<path class="st11" d="M2500.1,1524.5h55.8v10.4h-55.8V1524.5z"/>
<path class="st3" d="M2500.1,1559.1h130.2v10.4h-130.2V1559.1z"/>
<path class="st12" d="M2500.1,1420.6h78v10.4h-78V1420.6z"/>
<path class="st3" d="M2500.1,1455.2h146.7v10.4h-146.7V1455.2z"/>
<path class="st13" d="M2413.6,1628.3h50.3v10.4h-50.3V1628.3z M2413.6,1663h50.3v10.4h-50.3V1663z"/>
<path class="st14" d="M2413.6,1489.8h50.3v10.4h-50.3V1489.8z M2413.6,1559.1h50.3v10.4h-50.3V1559.1z"/>
<path class="st13" d="M2413.6,1420.6h50.3v10.4h-50.3V1420.6z"/>
<path class="st8" d="M148.4,960.6c-1.4,0-2.6-1.2-2.6-2.6v-10.4c0-1.4,1.2-2.6,2.7-2.5c1.4,0,2.5,1.1,2.5,2.5V958
	C151,959.4,149.9,960.6,148.4,960.6L148.4,960.6z M148.4,934.6c-1.4,0-2.6-1.2-2.6-2.6v-10.4c0-1.4,1.2-2.6,2.7-2.5
	c1.4,0,2.5,1.1,2.5,2.5V932C151,933.5,149.9,934.6,148.4,934.6L148.4,934.6z M148.4,908.7c-1.4,0-2.6-1.2-2.6-2.6v-10.4
	c0-1.4,1.2-2.6,2.7-2.5c1.4,0,2.5,1.1,2.5,2.5v10.4C151,907.5,149.9,908.7,148.4,908.7L148.4,908.7z M148.4,882.7
	c-1.4,0-2.6-1.2-2.6-2.6v-10.4c0-1.4,1.2-2.6,2.7-2.5c1.4,0,2.5,1.1,2.5,2.5v10.4C151,881.6,149.9,882.7,148.4,882.7L148.4,882.7z
	 M148.4,856.8c-1.4,0-2.6-1.2-2.6-2.6v-10.4c0-1.4,1.2-2.6,2.7-2.5c1.4,0,2.5,1.1,2.5,2.5v10.4C151,855.6,149.9,856.8,148.4,856.8
	L148.4,856.8z M148.4,830.8c-1.4,0-2.6-1.2-2.6-2.6v-10.4c0-1.4,1.2-2.6,2.7-2.5c1.4,0,2.5,1.1,2.5,2.5v10.4
	C151,829.7,149.9,830.8,148.4,830.8L148.4,830.8z M148.4,804.9c-1.4,0-2.6-1.2-2.6-2.6v-10.4c0-1.4,1.2-2.6,2.7-2.5
	c1.4,0,2.5,1.1,2.5,2.5v10.4C151,803.7,149.9,804.9,148.4,804.9L148.4,804.9z M523,790.3c-1.4,0-2.6-1.2-2.6-2.6
	c0-1.4,1.1-2.6,2.6-2.6h0c1.4,0,2.6,1.2,2.5,2.7C525.5,789.1,524.4,790.2,523,790.3L523,790.3z M507.4,790.3H497
	c-1.4,0-2.6-1.2-2.5-2.7c0-1.4,1.1-2.5,2.5-2.5h10.4c1.4,0,2.6,1.2,2.5,2.7C509.9,789.1,508.8,790.2,507.4,790.3z M481.5,790.3
	h-10.4c-1.4,0-2.6-1.2-2.5-2.7c0-1.4,1.1-2.5,2.5-2.5h10.4c1.4,0,2.6,1.2,2.5,2.7C483.9,789.1,482.8,790.2,481.5,790.3z
	 M455.5,790.3h-10.4c-1.4,0-2.6-1.2-2.5-2.7c0-1.4,1.1-2.5,2.5-2.5h10.4c1.4,0,2.6,1.2,2.5,2.7C458,789.1,456.9,790.2,455.5,790.3z
	 M429.6,790.3h-10.4c-1.4,0-2.6-1.2-2.5-2.7c0-1.4,1.1-2.5,2.5-2.5h10.4c1.4,0,2.6,1.2,2.5,2.7C432.1,789.1,431,790.2,429.6,790.3z
	 M403.6,790.3h-10.4c-1.4,0-2.6-1.2-2.5-2.7c0-1.4,1.1-2.5,2.5-2.5h10.4c1.4,0,2.6,1.2,2.5,2.7C406.1,789.1,405,790.2,403.6,790.3z
	 M377.7,790.3h-10.4c-1.4,0-2.6-1.2-2.5-2.7c0-1.4,1.1-2.5,2.5-2.5h10.4c1.4,0,2.6,1.2,2.5,2.7C380.2,789.1,379.1,790.2,377.7,790.3
	z M351.7,790.3h-10.4c-1.4,0-2.6-1.2-2.5-2.7c0-1.4,1.1-2.5,2.5-2.5h10.4c1.4,0,2.6,1.2,2.5,2.7
	C354.2,789.1,353.1,790.2,351.7,790.3z M325.8,790.3h-10.4c-1.4,0-2.6-1.2-2.5-2.7c0-1.4,1.1-2.5,2.5-2.5h10.4
	c1.4,0,2.6,1.2,2.5,2.7C328.3,789.1,327.2,790.2,325.8,790.3z M299.9,790.3h-10.4c-1.4,0-2.6-1.2-2.5-2.7c0-1.4,1.1-2.5,2.5-2.5
	h10.4c1.4,0,2.6,1.2,2.5,2.7C302.3,789.1,301.2,790.2,299.9,790.3z M273.9,790.3h-10.4c-1.4,0-2.6-1.2-2.5-2.7
	c0-1.4,1.1-2.5,2.5-2.5h10.4c1.4,0,2.6,1.2,2.5,2.7C276.4,789.1,275.3,790.2,273.9,790.3z M248,790.3h-10.4c-1.4,0-2.6-1.2-2.5-2.7
	c0-1.4,1.1-2.5,2.5-2.5H248c1.4,0,2.6,1.2,2.5,2.7C250.4,789.1,249.3,790.2,248,790.3z M222,790.3h-10.4c-1.4,0-2.6-1.2-2.5-2.7
	c0-1.4,1.1-2.5,2.5-2.5H222c1.4,0,2.6,1.2,2.5,2.7C224.5,789.1,223.4,790.2,222,790.3z M196.1,790.3h-10.4c-1.4,0-2.6-1.2-2.5-2.7
	c0-1.4,1.1-2.5,2.5-2.5h10.4c1.4,0,2.6,1.2,2.5,2.7C198.6,789.1,197.5,790.2,196.1,790.3z M170.1,790.3h-10.4
	c-1.4,0-2.6-1.2-2.5-2.7c0-1.4,1.1-2.5,2.5-2.5h10.4c1.4,0,2.6,1.2,2.5,2.7C172.6,789.1,171.5,790.2,170.1,790.3z M1036.2,594.2
	h-10.4c-1.4,0-2.6-1.2-2.5-2.7c0-1.4,1.1-2.5,2.5-2.5h10.4c1.4,0,2.6,1.2,2.5,2.7C1038.7,593.1,1037.6,594.2,1036.2,594.2z
	 M1010.2,594.2h-10.4c-1.4,0-2.6-1.2-2.5-2.7c0-1.4,1.1-2.5,2.5-2.5h10.4c1.4,0,2.6,1.2,2.5,2.7
	C1012.7,593.1,1011.6,594.2,1010.2,594.2z M984.3,594.2h-10.4c-1.4,0-2.6-1.2-2.5-2.7c0-1.4,1.1-2.5,2.5-2.5h10.4
	c1.4,0,2.6,1.2,2.5,2.7C986.8,593.1,985.7,594.2,984.3,594.2z M958.3,594.2H948c-1.4,0-2.6-1.2-2.5-2.7c0-1.4,1.1-2.5,2.5-2.5h10.4
	c1.4,0,2.6,1.2,2.5,2.7C960.8,593.1,959.7,594.2,958.3,594.2z M932.4,594.2H922c-1.4,0-2.6-1.2-2.5-2.7c0-1.4,1.1-2.5,2.5-2.5h10.4
	c1.4,0,2.6,1.2,2.5,2.7C934.9,593.1,933.8,594.2,932.4,594.2z M906.5,594.2h-10.4c-1.4,0-2.6-1.2-2.5-2.7c0-1.4,1.1-2.5,2.5-2.5
	h10.4c1.4,0,2.6,1.2,2.5,2.7C908.9,593.1,907.8,594.2,906.5,594.2z M880.5,594.2h-10.4c-1.4,0-2.6-1.2-2.5-2.7
	c0-1.4,1.1-2.5,2.5-2.5h10.4c1.4,0,2.6,1.2,2.5,2.7C883,593.1,881.9,594.2,880.5,594.2z M854.6,594.2h-10.4c-1.4,0-2.6-1.2-2.5-2.7
	c0-1.4,1.1-2.5,2.5-2.5h10.4c1.4,0,2.6,1.2,2.5,2.7C857,593.1,855.9,594.2,854.6,594.2z M828.6,594.2h-10.4c-1.4,0-2.6-1.2-2.5-2.7
	c0-1.4,1.1-2.5,2.5-2.5h10.4c1.4,0,2.6,1.2,2.5,2.7C831.1,593.1,830,594.2,828.6,594.2z M802.7,594.2h-10.4c-1.4,0-2.6-1.2-2.5-2.7
	c0-1.4,1.1-2.5,2.5-2.5h10.4c1.4,0,2.6,1.2,2.5,2.7C805.2,593.1,804.1,594.2,802.7,594.2z M776.7,594.2h-10.4
	c-1.4,0-2.6-1.2-2.5-2.7c0-1.4,1.1-2.5,2.5-2.5h10.4c1.4,0,2.6,1.2,2.5,2.7C779.2,593.1,778.1,594.2,776.7,594.2z M750.8,594.2
	h-10.4c-1.4,0-2.6-1.2-2.5-2.7c0-1.4,1.1-2.5,2.5-2.5h10.4c1.4,0,2.6,1.2,2.5,2.7C753.3,593.1,752.2,594.2,750.8,594.2z
	 M724.8,594.2h-10.4c-1.4,0-2.6-1.2-2.5-2.7c0-1.4,1.1-2.5,2.5-2.5h10.4c1.4,0,2.6,1.2,2.5,2.7C727.3,593.1,726.2,594.2,724.8,594.2
	z M698.9,594.2h-10.4c-1.4,0-2.6-1.2-2.5-2.7c0-1.4,1.1-2.5,2.5-2.5h10.4c1.4,0,2.6,1.2,2.5,2.7
	C701.4,593.1,700.3,594.2,698.9,594.2z M673,594.2h-10.4c-1.4,0-2.6-1.2-2.5-2.7c0-1.4,1.1-2.5,2.5-2.5H673c1.4,0,2.6,1.2,2.5,2.7
	C675.4,593.1,674.3,594.2,673,594.2L673,594.2z M647,594.2h-10.4c-1.4,0-2.6-1.2-2.5-2.7c0-1.4,1.1-2.5,2.5-2.5H647
	c1.4,0,2.6,1.2,2.5,2.7C649.5,593.1,648.4,594.2,647,594.2z M621.1,594.2h-10.4c-1.4,0-2.6-1.2-2.5-2.7c0-1.4,1.1-2.5,2.5-2.5h10.4
	c1.4,0,2.6,1.2,2.5,2.7C623.5,593.1,622.4,594.2,621.1,594.2z M595.1,594.2h-10.4c-1.4,0-2.6-1.2-2.5-2.7c0-1.4,1.1-2.5,2.5-2.5
	h10.4c1.4,0,2.6,1.2,2.5,2.7C597.6,593.1,596.5,594.2,595.1,594.2z M569.2,594.2h-10.4c-1.4,0-2.6-1.2-2.5-2.7
	c0-1.4,1.1-2.5,2.5-2.5h10.4c1.4,0,2.6,1.2,2.5,2.7C571.7,593.1,570.6,594.2,569.2,594.2z M2831.1,1804h-10.4
	c-1.4,0-2.6-1.2-2.5-2.7c0-1.4,1.1-2.5,2.5-2.5h10.4c1.4,0,2.6,1.2,2.5,2.7C2833.6,1802.9,2832.5,1804,2831.1,1804z M2805.2,1804
	h-10.4c-1.4,0-2.6-1.2-2.5-2.7c0-1.4,1.1-2.5,2.5-2.5h10.4c1.4,0,2.6,1.2,2.5,2.7C2807.6,1802.9,2806.5,1804,2805.2,1804z
	 M2779.2,1804h-10.4c-1.4,0-2.6-1.2-2.5-2.7c0-1.4,1.1-2.5,2.5-2.5h10.4c1.4,0,2.6,1.2,2.5,2.7
	C2781.7,1802.9,2780.6,1804,2779.2,1804z M2753.3,1804h-10.4c-1.4,0-2.6-1.2-2.5-2.7c0-1.4,1.1-2.5,2.5-2.5h10.4
	c1.4,0,2.6,1.2,2.5,2.7C2755.7,1802.9,2754.6,1804,2753.3,1804z M2727.3,1804h-10.4c-1.4,0-2.6-1.2-2.5-2.7c0-1.4,1.1-2.5,2.5-2.5
	h10.4c1.4,0,2.6,1.2,2.5,2.7C2729.8,1802.9,2728.7,1804,2727.3,1804z M2701.4,1804H2691c-1.4,0-2.6-1.2-2.5-2.7
	c0-1.4,1.1-2.5,2.5-2.5h10.4c1.4,0,2.6,1.2,2.5,2.7C2703.9,1802.9,2702.8,1804,2701.4,1804z M2675.4,1804h-10.4
	c-1.4,0-2.6-1.2-2.5-2.7c0-1.4,1.1-2.5,2.5-2.5h10.4c1.4,0,2.6,1.2,2.5,2.7C2677.9,1802.9,2676.8,1804,2675.4,1804z M2649.5,1804
	h-10.4c-1.4,0-2.6-1.2-2.5-2.7c0-1.4,1.1-2.5,2.5-2.5h10.4c1.4,0,2.6,1.2,2.5,2.7C2652,1802.9,2650.9,1804,2649.5,1804z
	 M2623.5,1804h-10.4c-1.4,0-2.6-1.2-2.5-2.7c0-1.4,1.1-2.5,2.5-2.5h10.4c1.4,0,2.6,1.2,2.5,2.7C2626,1802.9,2624.9,1804,2623.5,1804
	z M2597.6,1804h-10.4c-1.4,0-2.6-1.2-2.5-2.7c0-1.4,1.1-2.5,2.5-2.5h10.4c1.4,0,2.6,1.2,2.5,2.7
	C2600.1,1802.9,2599,1804,2597.6,1804z M2571.7,1804h-10.4c-1.4,0-2.6-1.2-2.5-2.7c0-1.4,1.1-2.5,2.5-2.5h10.4
	c1.4,0,2.6,1.2,2.5,2.7C2574.1,1802.9,2573,1804,2571.7,1804z M2545.7,1804h-10.4c-1.4,0-2.6-1.2-2.5-2.7c0-1.4,1.1-2.5,2.5-2.5
	h10.4c1.4,0,2.6,1.2,2.5,2.7C2548.2,1802.9,2547.1,1804,2545.7,1804z M2519.8,1804h-10.4c-1.4,0-2.6-1.2-2.5-2.7
	c0-1.4,1.1-2.5,2.5-2.5h10.4c1.4,0,2.6,1.2,2.5,2.7C2522.2,1802.9,2521.1,1804,2519.8,1804z M2493.8,1804h-10.4
	c-1.4,0-2.6-1.2-2.5-2.7c0-1.4,1.1-2.5,2.5-2.5h10.4c1.4,0,2.6,1.2,2.5,2.7C2496.3,1802.9,2495.2,1804,2493.8,1804z M2467.9,1804
	h-10.4c-1.4,0-2.6-1.2-2.5-2.7c0-1.4,1.1-2.5,2.5-2.5h10.4c1.4,0,2.6,1.2,2.5,2.7C2470.4,1802.9,2469.2,1804,2467.9,1804z
	 M2441.9,1804h-10.4c-1.4,0-2.6-1.2-2.5-2.7c0-1.4,1.1-2.5,2.5-2.5h10.4c1.4,0,2.6,1.2,2.5,2.7
	C2444.4,1802.9,2443.3,1804,2441.9,1804z M2416,1804h-10.4c-1.4,0-2.6-1.2-2.5-2.7c0-1.4,1.1-2.5,2.5-2.5h10.4
	c1.4,0,2.6,1.2,2.5,2.7C2418.5,1802.9,2417.4,1804,2416,1804z M2390,1804h-10.4c-1.4,0-2.6-1.2-2.5-2.7c0-1.4,1.1-2.5,2.5-2.5h10.4
	c1.4,0,2.6,1.2,2.5,2.7C2392.5,1802.9,2391.4,1804,2390,1804z M2364.1,1804h-10.4c-1.4,0-2.6-1.2-2.5-2.7c0-1.4,1.1-2.5,2.5-2.5
	h10.4c1.4,0,2.6,1.2,2.5,2.7C2366.6,1802.9,2365.5,1804,2364.1,1804z M2338.2,1804h-10.4c-1.4,0-2.6-1.2-2.5-2.7
	c0-1.4,1.1-2.5,2.5-2.5h10.4c1.4,0,2.6,1.2,2.5,2.7C2340.6,1802.9,2339.5,1804,2338.2,1804z M2150,125.6h-3.9
	c-1.4,0-2.6-1.2-2.5-2.7c0-1.4,1.1-2.5,2.5-2.5h3.9c1.4,0,2.6,1.2,2.5,2.7C2152.5,124.4,2151.4,125.5,2150,125.6z M2130.6,125.6
	h-10.4c-1.4,0-2.6-1.2-2.5-2.7c0-1.4,1.1-2.5,2.5-2.5h10.4c1.4,0,2.6,1.2,2.5,2.7C2133,124.4,2131.9,125.5,2130.6,125.6z
	 M2104.6,125.6h-10.4c-1.4,0-2.6-1.2-2.5-2.7c0-1.4,1.1-2.5,2.5-2.5h10.4c1.4,0,2.6,1.2,2.5,2.7
	C2107.1,124.4,2106,125.5,2104.6,125.6z M2078.7,125.6h-10.4c-1.4,0-2.6-1.2-2.5-2.7c0-1.4,1.1-2.5,2.5-2.5h10.4
	c1.4,0,2.6,1.2,2.5,2.7C2081.1,124.4,2080,125.5,2078.7,125.6z M2052.7,125.6h-10.4c-1.4,0-2.6-1.2-2.5-2.7c0-1.4,1.1-2.5,2.5-2.5
	h10.4c1.4,0,2.6,1.2,2.5,2.7C2055.2,124.4,2054.1,125.5,2052.7,125.6z M2026.8,125.6h-10.4c-1.4,0-2.6-1.2-2.5-2.7
	c0-1.4,1.1-2.5,2.5-2.5h10.4c1.4,0,2.6,1.2,2.5,2.7C2029.3,124.4,2028.2,125.5,2026.8,125.6z M2000.8,125.6h-10.4
	c-1.4,0-2.6-1.2-2.5-2.7c0-1.4,1.1-2.5,2.5-2.5h10.4c1.4,0,2.6,1.2,2.5,2.7C2003.3,124.4,2002.2,125.5,2000.8,125.6z M1974.9,125.6
	h-10.4c-1.4,0-2.6-1.2-2.5-2.7c0-1.4,1.1-2.5,2.5-2.5h10.4c1.4,0,2.6,1.2,2.5,2.7C1977.4,124.4,1976.3,125.5,1974.9,125.6z
	 M1948.9,125.6h-10.4c-1.4,0-2.6-1.2-2.5-2.7c0-1.4,1.1-2.5,2.5-2.5h10.4c1.4,0,2.6,1.2,2.5,2.7
	C1951.4,124.4,1950.3,125.5,1948.9,125.6z M1923,125.6h-10.4c-1.4,0-2.6-1.2-2.5-2.7c0-1.4,1.1-2.5,2.5-2.5h10.4
	c1.4,0,2.6,1.2,2.5,2.7C1925.5,124.4,1924.4,125.5,1923,125.6z M1897.1,125.6h-10.4c-1.4,0-2.6-1.2-2.5-2.7c0-1.4,1.1-2.5,2.5-2.5
	h10.4c1.4,0,2.6,1.2,2.5,2.7C1899.5,124.4,1898.4,125.5,1897.1,125.6z M1871.1,125.6h-10.4c-1.4,0-2.6-1.2-2.5-2.7
	c0-1.4,1.1-2.5,2.5-2.5h10.4c1.4,0,2.6,1.2,2.5,2.7C1873.6,124.4,1872.5,125.5,1871.1,125.6z M1845.2,125.6h-10.4
	c-1.4,0-2.6-1.2-2.5-2.7c0-1.4,1.1-2.5,2.5-2.5h10.4c1.4,0,2.6,1.2,2.5,2.7C1847.6,124.4,1846.5,125.5,1845.2,125.6z M1819.2,125.6
	h-10.4c-1.4,0-2.6-1.2-2.5-2.7c0-1.4,1.1-2.5,2.5-2.5h10.4c1.4,0,2.6,1.2,2.5,2.7C1821.7,124.4,1820.6,125.5,1819.2,125.6z
	 M1793.3,125.6h-10.4c-1.4,0-2.6-1.2-2.5-2.7c0-1.4,1.1-2.5,2.5-2.5h10.4c1.4,0,2.6,1.2,2.5,2.7
	C1795.8,124.4,1794.6,125.5,1793.3,125.6z M1767.3,125.6H1757c-1.4,0-2.6-1.2-2.5-2.7c0-1.4,1.1-2.5,2.5-2.5h10.4
	c1.4,0,2.6,1.2,2.5,2.7C1769.8,124.4,1768.7,125.5,1767.3,125.6z M1741.4,125.6H1731c-1.4,0-2.6-1.2-2.5-2.7c0-1.4,1.1-2.5,2.5-2.5
	h10.4c1.4,0,2.6,1.2,2.5,2.7C1743.9,124.4,1742.8,125.5,1741.4,125.6z M1715.4,125.6h-10.4c-1.4,0-2.6-1.2-2.5-2.7
	c0-1.4,1.1-2.5,2.5-2.5h10.4c1.4,0,2.6,1.2,2.5,2.7C1717.9,124.4,1716.8,125.5,1715.4,125.6z M1689.5,125.6h-10.4
	c-1.4,0-2.6-1.2-2.5-2.7c0-1.4,1.1-2.5,2.5-2.5h10.4c1.4,0,2.6,1.2,2.5,2.7C1692,124.4,1690.9,125.5,1689.5,125.6z M1663.6,125.6
	h-10.4c-1.4,0-2.6-1.2-2.5-2.7c0-1.4,1.1-2.5,2.5-2.5h10.4c1.4,0,2.6,1.2,2.5,2.7C1666,124.4,1664.9,125.5,1663.6,125.6z
	 M1637.6,125.6h-10.4c-1.4,0-2.6-1.2-2.5-2.7c0-1.4,1.1-2.5,2.5-2.5h10.4c1.4,0,2.6,1.2,2.5,2.7
	C1640.1,124.4,1639,125.5,1637.6,125.6z M1611.7,125.6h-10.4c-1.4,0-2.6-1.2-2.5-2.7c0-1.4,1.1-2.5,2.5-2.5h10.4
	c1.4,0,2.6,1.2,2.5,2.7C1614.1,124.4,1613,125.5,1611.7,125.6z M1585.7,125.6h-10.4c-1.4,0-2.6-1.2-2.5-2.7c0-1.4,1.1-2.5,2.5-2.5
	h10.4c1.4,0,2.6,1.2,2.5,2.7C1588.2,124.4,1587.1,125.5,1585.7,125.6z M1559.8,125.6h-10.4c-1.4,0-2.6-1.2-2.5-2.7
	c0-1.4,1.1-2.5,2.5-2.5h10.4c1.4,0,2.6,1.2,2.5,2.7C1562.2,124.4,1561.1,125.5,1559.8,125.6z M1533.8,125.6h-10.4
	c-1.4,0-2.6-1.2-2.5-2.7c0-1.4,1.1-2.5,2.5-2.5h10.4c1.4,0,2.6,1.2,2.5,2.7C1536.3,124.4,1535.2,125.5,1533.8,125.6z M1507.9,125.6
	h-10.4c-1.4,0-2.6-1.2-2.5-2.7c0-1.4,1.1-2.5,2.5-2.5h10.4c1.4,0,2.6,1.2,2.5,2.7C1510.4,124.4,1509.3,125.5,1507.9,125.6
	L1507.9,125.6z"/>
<path class="st15" d="M1464.5,945.2l40.1-98.5c0,0,16.4-109.9,23.7-121.6c7.2-11.7,70.1-44.3,81.3-49.3c11.1-5,66.9,7.2,87.8,11.1
	c20.9,3.9,24.1,26.7-5.2,24.5c-29.2-2.2-70.1-4.7-70.1-4.7l-26.8,23.8l43.5-8.5c0,0,44.2,11.7,57.6,15.6
	c13.4,3.9,20.3,28.7,0.3,24.2c-20-4.5-54-11.4-54-11.4l-33.4,18.4c0,0,28.1-7.8,35.6-8.4c7.5-0.5,28.9,8.6,50.9,17.5
	c22,8.9,14.5,28.9-6.4,23.7c-20.9-5.3-45.9-15-45.9-15l-20.6,14.2c0,0,18.8-2.6,22.4-2.2c3.6,0.4,20.9,14,32.6,24.1
	c11.7,10,3.3,21.4-8.9,16.7c-12.2-4.7-29.2-20-29.2-20l-22.8,14.2c0,0,11.1,32.8,1.1,50.7c-10,17.8-22.3,21.1-22.3,21.1l-31.7,104.1
	C1564,1009.3,1483.3,1011.6,1464.5,945.2L1464.5,945.2z"/>
<path class="st16" d="M1603.9,814.1c-1.4,0-2.6-1.2-2.6-2.6c0-0.9,0.5-1.8,1.3-2.3l19-10.8c1.2-0.7,2.8-0.3,3.6,0.9
	c0.7,1.2,0.3,2.8-0.9,3.6c0,0,0,0,0,0l-19,10.8C1604.8,814,1604.3,814.1,1603.9,814.1L1603.9,814.1z M1589.2,782.3
	c-1.4,0-2.6-1.2-2.6-2.6c0-1,0.5-1.9,1.4-2.3l21.7-11.4c1.3-0.7,2.8-0.2,3.5,1.1c0.7,1.3,0.2,2.8-1.1,3.5l0,0l-21.7,11.4
	C1590,782.2,1589.6,782.3,1589.2,782.3L1589.2,782.3z M1580,747.4c-1.4,0-2.6-1.2-2.6-2.6c0-0.7,0.3-1.4,0.8-1.9l15.3-14.3
	c1.1-1,2.7-0.9,3.7,0.1c1,1,0.9,2.7-0.1,3.6l-15.3,14.3C1581.2,747.2,1580.6,747.4,1580,747.4z"/>
<path class="st17" d="M884.2,1383.4l386.4-98c128.2-44.2,228.7,1.3,199.5,122.9c-1.4,5,6.3-25.3-3.5,13
	c-28.2,110.7-402.5,212.6-499.4,243.3C793,1719.7,729.1,1426.5,884.2,1383.4L884.2,1383.4z"/>
<path class="st17" d="M610.8,1379.5c0,0-155.9,98.3-181.7,115.5l1.4,742.6h563.8l51.9-579c6.6-73.3-30.5-185.1-162.1-275.3
	l-105.2-6.4C778.9,1377,705,1357,610.8,1379.5L610.8,1379.5z"/>
<path class="st16" d="M753.5,1513.8c-25.1,0-58.9-1.9-69.9-11.5c-17.1-15-50.4-53-51.8-54.6c-0.9-1.1-0.8-2.7,0.2-3.7
	c1.1-0.9,2.7-0.8,3.7,0.2l0,0c0.3,0.4,34.4,39.4,51.3,54.1c13.4,11.7,73.4,10.7,95.4,9.4c1.4-0.1,2.7,1,2.8,2.4
	c0.1,1.4-1,2.7-2.4,2.8l0,0C781.5,1513,769.2,1513.8,753.5,1513.8L753.5,1513.8z M815.6,1431c-1.2,0-2.3-0.9-2.5-2.1
	c-5.2-24.9-22-49.4-22.1-49.7c-0.8-1.2-0.5-2.8,0.7-3.6c1.2-0.8,2.8-0.5,3.6,0.7c0.7,1,17.5,25.6,23,51.6c0.3,1.4-0.6,2.8-2,3.1
	C815.9,1431,815.7,1431,815.6,1431z M1017.2,2011.1l-5.2-0.5l31.6-352.2c6.5-72.5-38.2-146.6-38.7-147.4c-0.7-1.2-0.4-2.8,0.9-3.6
	c1.2-0.7,2.8-0.4,3.6,0.9c0.5,0.8,46,76.4,39.4,150.5L1017.2,2011.1z"/>
<path class="st15" d="M610.8,1233.5v146c0,0,47.2,65.1,75.1,91.6c27.9,26.5,70.1,17.2,104.5,17.2c34.3,0-11.4-110.2-11.4-110.2
	v-137.4C778.9,1240.7,721,1170.6,610.8,1233.5L610.8,1233.5z"/>
<path class="st18" d="M610.8,1233.5v18.5c16,39.6,38.4,72,63.7,88.8c26.2,17.4,64.9,30.8,104.5,36.1v-136.3
	C778.9,1240.7,721,1170.6,610.8,1233.5z"/>
<path class="st15" d="M849.2,983.4c0,0,54.4,197.9,42,277.7c-12.5,79.9-140.9,113.6-224.7,73.5c-83.8-40.1-162.6-228.3-94.9-342
	C639.2,878.9,830.1,859,849.2,983.4L849.2,983.4z"/>
<path class="st16" d="M618.1,1045.2c0,0,116.2-16.5,216.8-30.9c100.6-14.3,103.7-266.3,3.3-220.2
	c-100.4,46.1-335.3,30.4-322.8,138.5c0,0-57.5,2.4-44,97.3c13.5,94.9,58.4,234.2,118,223C649,1241.7,618.1,1045.2,618.1,1045.2
	L618.1,1045.2z"/>
<path class="st15" d="M645.2,1169.3c0,0-51.5-73.1-94.1-22.1c-42.7,51,21.7,127.8,98.4,62L645.2,1169.3L645.2,1169.3z"/>
<path class="st16" d="M577.5,1201.6c-1.4,0-2.6-1.2-2.6-2.6c0-0.8,0.4-1.6,1-2.1l15.8-12l-27.6-9.2c-1.4-0.4-2.1-1.9-1.7-3.3
	c0.4-1.4,1.9-2.1,3.3-1.7c0,0,0,0,0,0l32.1,10.7c0.1,0,0.3,0.1,0.4,0.1l15.9,5.3c1.4,0.4,2.1,1.9,1.7,3.3c-0.4,1.4-1.9,2.1-3.3,1.7
	c0,0,0,0,0,0l-14.8-4.9l-18.7,14.1C578.6,1201.4,578.1,1201.6,577.5,1201.6L577.5,1201.6z M846.2,1195.2c-1.4,0-2.6-1.2-2.6-2.6
	c0-0.8,0.4-1.6,1-2.1c7-5.3,10.3-10.5,9.7-15.5c-0.9-7.8-10.5-15.9-28.5-23.8c-1.3-0.6-1.8-0.8-2.2-1c-2.1-1.3-4.9-7.9-8.3-19.4
	c-0.4-1.4,0.4-2.8,1.8-3.2c1.4-0.4,2.8,0.4,3.2,1.8l0,0c2,6.9,4.9,15,6.2,16.5c0.3,0.1,0.8,0.3,1.4,0.6c7.4,3.3,29.9,13.2,31.6,28
	c0.8,7-3.1,13.8-11.7,20.3C847.3,1195.1,846.7,1195.2,846.2,1195.2L846.2,1195.2z"/>
<path class="st6" d="M792.2,1201.5c0,0,35.1,9.7,57.2,6c22.1-3.7,15.1,35.9-26.9,38.5C780.4,1248.6,759.8,1192.2,792.2,1201.5z"/>
<path class="st16" d="M754.8,1104.2L754.8,1104.2c5.9-0.8,11.3,3.2,12.1,9.1l2.3,16.3c0.8,5.9-3.2,11.3-9.1,12.1l0,0
	c-5.9,0.8-11.3-3.2-12.1-9.1l-2.3-16.3C744.8,1110.5,748.9,1105,754.8,1104.2C754.8,1104.2,754.8,1104.2,754.8,1104.2L754.8,1104.2z
	 M850.4,1090.6L850.4,1090.6c5.9-0.8,11.3,3.2,12.1,9.1c0,0,0,0,0,0l2.3,16.3c0.8,5.9-3.2,11.3-9.1,12.1l0,0
	c-5.9,0.8-11.3-3.2-12.1-9.1c0,0,0,0,0,0l-2.3-16.3C840.5,1096.8,844.5,1091.4,850.4,1090.6C850.4,1090.6,850.4,1090.6,850.4,1090.6
	L850.4,1090.6z M706.2,1083.8c0,0,57.7,1.6,65.2-6.6c7.5-8.2-8-18.6-29.9-15.6C719.6,1064.7,695,1082.4,706.2,1083.8z M884.1,1060
	c0,0-46.3,15.2-54.9,9.2c-8.6-6.1,0.7-19.5,19.4-21.9C867.2,1045,892.7,1056,884.1,1060z"/>
<path class="st17" d="M429.1,1495c0,0-73,47.9-87.3,241.1c-14.3,193.2-83,501.5,57.2,501.5c161.4,0,164.2-86.1,170.6-221.4
	c0,0,16.6-239.8,26.6-380C606.2,1496,519.8,1437,429.1,1495L429.1,1495z"/>
<path class="st16" d="M569.6,2018.8c-1.4,0-2.6-1.2-2.6-2.6c0-0.1,0-0.1,0-0.2l24.4-349.6c0.1-1.4,1.3-2.5,2.8-2.4
	c1.4,0.1,2.5,1.3,2.4,2.8c0,0,0,0,0,0l-24.4,349.6C572.1,2017.8,571,2018.8,569.6,2018.8z"/>
<path class="st17" d="M1270.5,1285.4c0,0,163.1-329.1,187.4-416.4c0,0,87.3,15.7,147.4,114.5c0,0-120.2,364.9-138.8,437.9
	c-14.4,49.9-127.3,78.3-181.6,2.5C1230.5,1347.9,1270.5,1285.4,1270.5,1285.4L1270.5,1285.4z"/>
<path class="st16" d="M1265.9,1392.2c-1,0-1.9-0.6-2.3-1.4c-1-2-23.8-48.5,4.6-106.6c27.8-56.9,121.8-256,122.8-258
	c0.6-1.3,2.2-1.8,3.5-1.2c1.2,0.6,1.8,2.1,1.2,3.4c-0.9,2-94.9,201.1-122.8,258c-27.3,55.7-4.8,101.5-4.6,101.9
	c0.6,1.3,0.1,2.8-1.1,3.5C1266.7,1392.1,1266.3,1392.2,1265.9,1392.2L1265.9,1392.2z"/>
<path class="st15" d="M971.3,2088.2c0,0,126.5-43.5,139.5-41.2c12.9,2.2,165.8,38,176.2,45.9c10.4,7.9,9.7,24.2-4.3,23.1
	c-14-1.1-67.2-10.8-67.2-10.8s7.8,13.1-3.4,30.6c0,0,11,16-2.8,32.8c0,0,4.4,23-0.5,32.1c-4.9,9.1-67.1,36.1-77.2,34.1
	c-10.1-2.1-13.1-18.4-13.1-18.4l29.8-16.8c0,0-51.5,18.6-64,21.1c-12.4,2.5-114.4-17.4-114.4-17.4l-103.5,20.4
	c0,0-42.7-83.3-25.6-127.6L971.3,2088.2L971.3,2088.2z"/>
<path class="st16" d="M1122,2216.9c-1.4,0-2.6-1.2-2.6-2.6c0-1,0.5-1.8,1.4-2.3l51.9-27.7c1.3-0.7,2.8-0.2,3.5,1.1
	c0.6,1.2,0.2,2.8-1.1,3.5l-51.9,27.7C1122.9,2216.8,1122.4,2216.9,1122,2216.9z M1209.3,2171.2c-0.2,0-0.5,0-0.7-0.1l-81.8-22.6
	c-1.4-0.4-2.2-1.8-1.8-3.2c0.4-1.4,1.8-2.2,3.2-1.8l81.8,22.6c1.4,0.4,2.2,1.8,1.8,3.2C1211.5,2170.4,1210.5,2171.2,1209.3,2171.2z
	 M1212.1,2138.4c-0.3,0-0.6,0-0.8-0.1l-87.1-29.2c-1.4-0.4-2.1-1.9-1.7-3.3c0.4-1.4,1.9-2.1,3.3-1.7c0,0,0.1,0,0.1,0l87.1,29.2
	c1.4,0.5,2.1,1.9,1.6,3.3C1214.2,2137.7,1213.2,2138.4,1212.1,2138.4L1212.1,2138.4z M1215.5,2107.8c-0.2,0-0.5,0-0.7-0.1
	l-90.8-27.2c-1.4-0.4-2.2-1.9-1.7-3.2c0.4-1.4,1.9-2.2,3.2-1.7l0,0l90.8,27.2c1.4,0.4,2.2,1.8,1.8,3.2
	C1217.7,2107.1,1216.7,2107.9,1215.5,2107.8z"/>
<path class="st17" d="M399.1,2237.6h578.1c52.9,0,9-185,9-185l-416.5-36.4C234.5,1987,399.1,2237.6,399.1,2237.6z"/>
<path class="st16" d="M986.1,2240.2c-1.4,0-2.6-1.2-2.6-2.6c0-0.7,0.3-1.4,0.9-1.9c38.4-34.6,4.3-164.2-0.3-180.6
	c-27.1-2.4-353-30.8-414.7-36.2c-62.3-5.4-111.4,44.4-111.9,44.9c-1,1-2.7,1-3.7,0c-1-1-1-2.6-0.1-3.6c0.5-0.5,51.3-52.2,116.1-46.5
	c64.4,5.6,416.5,36.4,416.5,36.4c1.1,0.1,2,0.8,2.3,1.9c1.8,6.1,42.5,148.7-0.8,187.6C987.4,2240,986.8,2240.2,986.1,2240.2z"/>
<path class="st16" d="M969.4,2219.8c-1.3,0-2.4-1-2.6-2.3c-8.5-65.8-14.3-146.7-14.3-147.5c-0.1-1.4,1-2.7,2.4-2.8
	c1.4-0.1,2.7,1,2.8,2.4c0.1,0.8,5.8,81.5,14.3,147.2c0.2,1.4-0.8,2.7-2.2,2.9C969.6,2219.8,969.5,2219.8,969.4,2219.8L969.4,2219.8z
	"/>
<path class="st6" d="M1634.9,634.1l798.6,66.1c46.5,3.8,81,44.6,77.2,91.1c-3.8,46.5-44.6,81-91.1,77.2L1621,802.3
	c-46.5-3.8-81-44.6-77.2-91.1C1547.7,664.8,1588.5,630.2,1634.9,634.1L1634.9,634.1z"/>
<path class="st9" d="M2329.4,691.5l104.1,8.6c46.3,3.8,81,44.8,77.2,91.1c-3.8,46.3-44.8,81-91.1,77.2l-104.1-8.6L2329.4,691.5z"/>
<path class="st6" d="M2431.3,823.8c-0.7,0-1.5-0.3-2-0.9l-16.4-19.4c-6.5,4.7-14.4,6.9-22.5,6.3c-9-0.7-17.1-4.9-23-11.8
	c-5.8-6.9-8.6-15.6-7.9-24.6c0.7-9,4.9-17.1,11.8-23c14.2-12,35.5-10.2,47.5,3.9c5.8,6.9,8.6,15.6,7.9,24.6
	c-0.7,8.1-4.2,15.5-9.9,21.2l16.4,19.4c0.9,1.1,0.8,2.7-0.3,3.7C2432.6,823.6,2432,823.8,2431.3,823.8L2431.3,823.8z M2393.2,747.7
	c-6.7,0-13.3,2.4-18.4,6.7c-12,10.2-13.5,28.2-3.3,40.2c4.9,5.8,11.9,9.4,19.4,10c7.6,0.6,15-1.7,20.8-6.7l0,0
	c5.8-4.9,9.4-11.8,10-19.4c0.6-7.6-1.7-15-6.7-20.8C2409.3,751.1,2401.3,747.7,2393.2,747.7z"/>
<path class="st3" d="M2419.6,871c-0.1,0-0.1,0-0.2,0l-798.6-66.1c-1.4-0.1-2.5-1.4-2.4-2.8c0,0,0,0,0,0c0.1-1.4,1.4-2.5,2.8-2.4
	l798.6,66.1c1.4,0.1,2.5,1.4,2.4,2.8C2422.1,870,2421,871,2419.6,871z"/>
<path class="st15" d="M1584.8,866.3c23.9-37.9-10-85.7-10-85.7s11.1-5.6,31.7-15.6c20.6-10,14.2-32-2.2-26.4
	c-16.4,5.6-46.2,8.6-53.4,19.2c-7.2,10.6-27.6,46.2-27.6,46.2L1584.8,866.3L1584.8,866.3z"/>
<path class="st16" d="M1584.8,868.9c-1.4,0-2.6-1.2-2.6-2.6c0-0.5,0.1-1,0.4-1.4c22.7-35.9-9.6-82.4-9.9-82.8
	c-0.8-1.2-0.6-2.8,0.6-3.6c0.1-0.1,0.2-0.1,0.3-0.2c0.1-0.1,11.4-5.7,31.7-15.6c10-4.9,13-12.7,10.8-18c-1.7-4-5.9-5.4-11.1-3.6
	c-5.2,1.8-11.5,3.3-18.2,4.8c-13.8,3.2-29.5,6.9-33.9,13.4c-7.1,10.4-27.2,45.7-27.4,46c-0.7,1.2-2.3,1.6-3.6,0.9
	c-1.2-0.7-1.6-2.2-0.9-3.4c0.8-1.5,20.5-35.8,27.7-46.4c5.6-8.1,21.6-11.9,37-15.5c6.6-1.5,12.8-3,17.7-4.7c9-3.1,15.3,1.1,17.6,6.6
	c3.1,7.5-0.5,18.4-13.4,24.7c-9.7,4.7-19.4,9.5-29.1,14.3c6.8,10.6,30.1,51.8,8.4,86.1C1586.6,868.4,1585.7,868.9,1584.8,868.9
	L1584.8,868.9z"/>
<path class="st19" d="M25.3,1368.9h246.2v-270.2l-73.5-73.5H25.3V1368.9z"/>
<path class="st10" d="M198,1025.2v73.5h73.5L198,1025.2z"/>
<path class="st6" d="M79.1,1192c9.6-1.8,14.4-6.7,14.4-14.8c0-3.6-0.5-9.7-1.4-18.4c-0.9-9.2-1.4-15.9-1.4-20.1
	c0-6.8,1.9-12,5.7-15.6c3.8-3.6,8.9-5.4,15.3-5.4h8.2v11.2h-5.8c-3.7,0-6.4,0.8-8.2,2.5c-1.8,1.6-2.7,4.4-2.7,8.1
	c0,2.7,0.2,6.1,0.6,10.1c0.4,4,0.6,6.7,0.7,8.1c0.9,9.1,1.4,15.6,1.4,19.8c0,5-1.3,9.2-3.7,12.5c-2.5,3.4-6.3,5.6-11.5,6.7v0.3
	c5.2,1.1,9,3.4,11.5,6.8c2.5,3.4,3.7,7.6,3.7,12.6c0,4.1-0.5,10.7-1.4,19.8c-0.1,1.4-0.3,4.1-0.7,8.1c-0.4,4-0.6,7.4-0.6,10.1
	c0,3.8,0.9,6.5,2.7,8.1c1.8,1.6,4.5,2.5,8.2,2.5h5.8v11.2h-8.2c-6.4,0-11.5-1.8-15.3-5.4c-3.8-3.6-5.7-8.8-5.7-15.6
	c0-4.1,0.5-10.8,1.4-20.1c0.9-8.7,1.4-14.8,1.4-18.4c0-8.1-4.8-13.1-14.4-14.8V1192L79.1,1192z M217.8,1202
	c-9.6,1.8-14.4,6.7-14.4,14.8c0,3.6,0.5,9.7,1.4,18.4c0.9,9.2,1.4,15.9,1.4,20.1c0,6.8-1.9,12-5.7,15.6c-3.8,3.6-8.9,5.4-15.3,5.4
	h-8.2v-11.2h5.8c3.7,0,6.4-0.8,8.2-2.5c1.8-1.7,2.7-4.4,2.7-8.1c0-2.7-0.2-6.1-0.6-10.1c-0.4-4-0.6-6.7-0.7-8.1
	c-0.9-9-1.4-15.6-1.4-19.8c0-5,1.2-9.2,3.7-12.6c2.5-3.4,6.3-5.7,11.5-6.8v-0.3c-5.2-1.1-9-3.4-11.5-6.7c-2.5-3.3-3.7-7.5-3.7-12.5
	c0-4.1,0.5-10.7,1.4-19.8c0.1-1.4,0.3-4.1,0.7-8.1c0.4-4,0.6-7.4,0.6-10.1c0-3.8-0.9-6.5-2.7-8.1c-1.8-1.6-4.5-2.5-8.2-2.5h-5.8
	v-11.2h8.2c6.4,0,11.5,1.8,15.3,5.4c3.8,3.6,5.7,8.8,5.7,15.6c0,4.1-0.5,10.8-1.4,20.1c-0.9,8.7-1.4,14.8-1.4,18.4
	c0,8.1,4.8,13.1,14.4,14.8V1202L217.8,1202z"/>
<path class="st4" d="M225.2,680.7h300.4V537.6l-60.9-60.9H225.2V680.7z"/>
<path class="st20" d="M464.6,476.7v60.9h60.9L464.6,476.7z"/>
<path class="st6" d="M333.2,601c-0.4,0-0.9-0.1-1.3-0.3l-40.2-23.2c-0.5-0.3-0.9-0.7-1.1-1.2c-0.4-1-0.2-2.2,0.5-2.9
	c0.2-0.2,0.4-0.3,0.6-0.4l40.2-23.2c1.3-0.7,2.8-0.3,3.5,1c0.7,1.2,0.3,2.8-0.9,3.5l-36.3,21l36.3,21c1.2,0.7,1.7,2.3,1,3.5
	c0,0,0,0,0,0C335,600.5,334.1,601,333.2,601L333.2,601z M417.5,601c-1.4,0-2.6-1.2-2.6-2.6c0-0.9,0.5-1.8,1.3-2.3l36.3-21l-36.3-21
	c-1.2-0.7-1.7-2.3-1-3.5c0.7-1.2,2.3-1.7,3.5-1l0,0l40.2,23.2c0.5,0.3,0.9,0.7,1.1,1.2c0.3,0.7,0.3,1.5,0,2.1
	c-0.2,0.5-0.6,0.9-1.1,1.2l-40.2,23.2C418.4,600.9,418,601,417.5,601z M359.8,639.3c-1.4,0-2.6-1.2-2.6-2.6c0-0.2,0-0.5,0.1-0.7
	l31.1-116c0.4-1.4,1.9-2.1,3.3-1.7c1.3,0.4,2.1,1.7,1.8,3.1l-31.1,116C362,638.5,361,639.3,359.8,639.3z"/>
<circle class="st17" cx="2309.4" cy="123" r="75.1"/>
<path class="st16" d="M2309.4,153.5c-0.7,0-1.4-0.3-1.8-0.8l-46.5-46.5c-1-1-0.9-2.7,0.1-3.7c1-0.9,2.6-0.9,3.6,0l44.7,44.7
	l87.2-87.2c1-1,2.7-0.9,3.7,0.1c0.9,1,0.9,2.6,0,3.6l-89,89C2310.7,153.2,2310.1,153.5,2309.4,153.5L2309.4,153.5z"/>
<path class="st19" d="M2837.6,877.7c0,0-12.9,31.9-87.6,46.8c0,0-49.2,114.5,87.6,184.9c136.8-70.4,87.6-184.9,87.6-184.9
	C2850.5,909.6,2837.6,877.7,2837.6,877.7z"/>
<path class="st6" d="M2837.6,1042.1c-0.7,0-1.4-0.3-1.8-0.8l-67.5-67.5c-1-1-0.9-2.7,0.1-3.7c1-0.9,2.6-0.9,3.6,0l65.7,65.7
	l102.2-102.2c1-1,2.7-1,3.7,0c1,1,1,2.7,0,3.7l-104,104C2838.9,1041.9,2838.2,1042.1,2837.6,1042.1L2837.6,1042.1z"/>
<rect x="1284.3" y="2186.5" class="st3" width="824.2" height="45.8"/>
<path class="st8" d="M1530.4,2155h520.8v77.3h-520.8V2155z M1393.8,1551.1h876.6c1.3,0,0.6,10.3-1.6,23l-74.5,423.4
	c-2.2,12.7-5.1,23-6.4,23h-876.6c-1.3,0-0.6-10.3,1.6-23l74.5-423.4C1389.6,1561.4,1392.5,1551.1,1393.8,1551.1z"/>
<path class="st3" d="M1392.7,1551.1h49c0.7,0-15.2,93.4-35.4,208.7l-9.1,52c-20.3,115.2-37.3,208.7-38,208.7h-49
	c-0.7,0,15.2-93.4,35.4-208.7l9.1-52C1375,1644.6,1392,1551.1,1392.7,1551.1z"/>
<path class="st16" d="M2249.9,1553.7H1420c-1.4,0-2.6-1.2-2.5-2.7c0-1.4,1.1-2.5,2.5-2.5h829.9c1.4,0,2.6,1.2,2.5,2.7
	C2252.4,1552.6,2251.3,1553.7,2249.9,1553.7z M2167.4,2023.1h-829.9c-1.4,0-2.6-1.2-2.5-2.7c0-1.4,1.1-2.5,2.5-2.5h829.9
	c1.4,0,2.6,1.2,2.5,2.7C2169.9,2021.9,2168.8,2023,2167.4,2023.1L2167.4,2023.1z"/>
<path class="st3" d="M1739.3,1845.9h103v386.4h-103V1845.9z"/>
<path class="st16" d="M1739.3,2189.1c-1.4,0-2.6-1.2-2.6-2.6v-239.7c0-1.4,1.2-2.6,2.7-2.5c1.4,0,2.5,1.1,2.5,2.5v239.7
	C1741.9,2187.9,1740.8,2189.1,1739.3,2189.1L1739.3,2189.1z M1530.4,2234.8c-1.4,0-2.6-1.2-2.6-2.6V2155c0-1.4,1.2-2.6,2.6-2.6h60.1
	c1.4,0,2.6,1.2,2.5,2.7c0,1.4-1.1,2.5-2.5,2.5H1533v74.7C1533,2233.7,1531.9,2234.8,1530.4,2234.8z"/>
<path class="st6" d="M16.9,2232.2h2966.3v32.1H16.9V2232.2z"/>
<path class="st3" d="M2983.1,2266.9H16.9c-1.4,0-2.6-1.2-2.6-2.6v-32.1c0-1.4,1.2-2.6,2.6-2.6h2966.3c1.4,0,2.6,1.2,2.6,2.6v32.1
	C2985.7,2265.8,2984.6,2266.9,2983.1,2266.9z M19.5,2261.7h2961.1v-26.9H19.5L19.5,2261.7L19.5,2261.7z"/>
</svg>
