<?xml version="1.0" encoding="utf-8"?>
<!-- Generator: Adobe Illustrator 26.1.0, SVG Export Plug-In . SVG Version: 6.00 Build 0)  -->
<svg version="1.1" id="Layer_1" xmlns="http://www.w3.org/2000/svg" xmlns:xlink="http://www.w3.org/1999/xlink" x="0px" y="0px"
	 viewBox="0 0 500 600" style="enable-background:new 0 0 500 600;" xml:space="preserve">
<style type="text/css">
	
		.st0{clip-path:url(#SVGID_00000008140612431533745930000002988766249127454101_);fill:url(#SVGID_00000141441301275041508300000013168590023810102686_);fill-opacity:0.3;}
	
		.st1{clip-path:url(#SVGID_00000008140612431533745930000002988766249127454101_);fill:url(#SVGID_00000114757957937339885730000015840801913601956014_);fill-opacity:0.3;}
	
		.st2{clip-path:url(#SVGID_00000008140612431533745930000002988766249127454101_);fill:url(#SVGID_00000109729870585263566190000013635662638116444833_);fill-opacity:0.3;}
	
		.st3{clip-path:url(#SVGID_00000008140612431533745930000002988766249127454101_);fill:url(#SVGID_00000146499711039355574680000007149314038540823989_);fill-opacity:0.3;}
	
		.st4{clip-path:url(#SVGID_00000008140612431533745930000002988766249127454101_);fill:url(#SVGID_00000093177439299086210650000010120291856369009824_);fill-opacity:0.3;}
	.st5{clip-path:url(#SVGID_00000008140612431533745930000002988766249127454101_);}
	.st6{clip-path:url(#SVGID_00000116938166939096569420000013101032956768314532_);}
	.st7{fill:#A6B9DE;}
	.st8{fill:#FFFFFF;}
	.st9{fill:#D2DCEE;}
	
		.st10{clip-path:url(#SVGID_00000008140612431533745930000002988766249127454101_);fill:none;stroke:#D2DCEE;stroke-width:2;stroke-linecap:round;}
</style>
<g>
	<defs>
		<rect id="SVGID_1_" x="0" y="0" width="500" height="600"/>
	</defs>
	<clipPath id="SVGID_00000155849280547567427570000002746969071476186254_">
		<use xlink:href="#SVGID_1_"  style="overflow:visible;"/>
	</clipPath>
	
		<linearGradient id="SVGID_00000129927803921113051850000016606049002918051487_" gradientUnits="userSpaceOnUse" x1="725.4126" y1="-551.9692" x2="725.4126" y2="-112.8102" gradientTransform="matrix(-0.7071 -0.7071 -0.7071 0.7071 599.0425 879.5555)">
		<stop  offset="0.3385" style="stop-color:#D2DCEE"/>
		<stop  offset="1" style="stop-color:#D2DCEE;stop-opacity:0"/>
	</linearGradient>
	
		<polygon style="clip-path:url(#SVGID_00000155849280547567427570000002746969071476186254_);fill:url(#SVGID_00000129927803921113051850000016606049002918051487_);fill-opacity:0.3;" points="
		149.3,465.2 -12.5,303.5 395.5,-104.5 557.3,57.2 	"/>
	
		<linearGradient id="SVGID_00000014605069452197433710000009435993152125131452_" gradientUnits="userSpaceOnUse" x1="780.9232" y1="-816.5182" x2="780.9232" y2="-377.3593" gradientTransform="matrix(-0.7071 -0.7071 -0.7071 0.7071 580.6542 1261.9387)">
		<stop  offset="0.3385" style="stop-color:#D2DCEE"/>
		<stop  offset="1" style="stop-color:#D2DCEE;stop-opacity:0"/>
	</linearGradient>
	
		<polygon style="clip-path:url(#SVGID_00000155849280547567427570000002746969071476186254_);fill:url(#SVGID_00000014605069452197433710000009435993152125131452_);fill-opacity:0.3;" points="
		278.7,621.2 117,459.5 525,51.5 686.7,213.2 	"/>
	
		<linearGradient id="SVGID_00000029024146611620245810000000226741143415955861_" gradientUnits="userSpaceOnUse" x1="1274.2047" y1="-642.5939" x2="1274.2047" y2="-203.4349" gradientTransform="matrix(-0.7071 -0.7071 -0.7071 0.7071 580.6542 1261.9387)">
		<stop  offset="0.3385" style="stop-color:#D2DCEE"/>
		<stop  offset="1" style="stop-color:#D2DCEE;stop-opacity:0"/>
	</linearGradient>
	
		<polygon style="clip-path:url(#SVGID_00000155849280547567427570000002746969071476186254_);fill:url(#SVGID_00000029024146611620245810000000226741143415955861_);fill-opacity:0.3;" points="
		-193.1,395.4 -354.8,233.7 53.2,-174.3 214.9,-12.6 	"/>
	
		<linearGradient id="SVGID_00000008148079014622319260000003819569226406575511_" gradientUnits="userSpaceOnUse" x1="539.8587" y1="-442.2571" x2="539.8587" y2="-3.0971" gradientTransform="matrix(-0.7071 -0.7071 -0.7071 0.7071 520.0585 627.4153)">
		<stop  offset="0.3385" style="stop-color:#D2DCEE"/>
		<stop  offset="1" style="stop-color:#D2DCEE;stop-opacity:0"/>
	</linearGradient>
	
		<polygon style="clip-path:url(#SVGID_00000155849280547567427570000002746969071476186254_);fill:url(#SVGID_00000008148079014622319260000003819569226406575511_);fill-opacity:0.3;" points="
		57.5,355.5 28.5,326.5 436.5,-81.5 465.5,-52.5 	"/>
	
		<linearGradient id="SVGID_00000158009850326617391150000012984878220506208928_" gradientUnits="userSpaceOnUse" x1="372.8799" y1="-339.0547" x2="372.8799" y2="100.1053" gradientTransform="matrix(-0.7071 -0.7071 -0.7071 0.7071 311.3478 464.9645)">
		<stop  offset="0.3385" style="stop-color:#D2DCEE"/>
		<stop  offset="1" style="stop-color:#D2DCEE;stop-opacity:0"/>
	</linearGradient>
	
		<polygon style="clip-path:url(#SVGID_00000155849280547567427570000002746969071476186254_);fill:url(#SVGID_00000158009850326617391150000012984878220506208928_);fill-opacity:0.3;" points="
		-106.1,384.1 -135.1,355.1 272.9,-52.9 301.9,-23.9 	"/>
	<g style="clip-path:url(#SVGID_00000155849280547567427570000002746969071476186254_);">
		<defs>
			
				<rect id="SVGID_00000139984533083860401100000000505916468069152956_" x="368.3" y="14.9" transform="matrix(0.3252 -0.9456 0.9456 0.3252 222.1261 432.1825)" width="91.2" height="91.2"/>
		</defs>
		<clipPath id="SVGID_00000028315444269493147380000015732930051349157031_">
			<use xlink:href="#SVGID_00000139984533083860401100000000505916468069152956_"  style="overflow:visible;"/>
		</clipPath>
		<g style="clip-path:url(#SVGID_00000028315444269493147380000015732930051349157031_);">
			<path class="st7" d="M419.6,87.1l-0.2,0.3l-27.3,13.1L409.5,79L419.6,87.1z"/>
			<path class="st8" d="M470.9,33.1c-0.4-1.3-1.8-2.2-3.1-2l-95.3,14.4c-1.1,0.2-2,1-2.3,2c-0.3,1.1,0.1,2.2,0.9,3l24.1,20.3
				c0.3,0.2,0.6,0.4,0.9,0.5c0.7,0.2,1.5,0.2,2.2-0.1l71.2-34.8C470.7,35.9,471.3,34.4,470.9,33.1L470.9,33.1z"/>
			<path class="st8" d="M470,31.7c-1-0.8-2.5-0.8-3.5,0l-58.7,45.1c-0.7,0.5-1.1,1.4-1.1,2.2c0,0.9,0.4,1.7,1.1,2.3L436,104
				c0.3,0.2,0.6,0.4,0.9,0.5c0.5,0.2,1.1,0.2,1.6,0.1c0.9-0.2,1.6-0.8,1.9-1.6l30.4-67.9C471.3,33.9,471,32.5,470,31.7L470,31.7z"/>
			<path class="st9" d="M468.2,33.9l-60.4,47.3l-15.7,19.2l2.5-30.6L468.2,33.9z"/>
		</g>
	</g>
	
		<line style="clip-path:url(#SVGID_00000155849280547567427570000002746969071476186254_);fill:none;stroke:#D2DCEE;stroke-width:2;stroke-linecap:round;" x1="399" y1="137.1" x2="425.6" y2="110.5"/>
	
		<line style="clip-path:url(#SVGID_00000155849280547567427570000002746969071476186254_);fill:none;stroke:#D2DCEE;stroke-width:2;stroke-linecap:round;" x1="358" y1="95.1" x2="370.6" y2="82.5"/>
	
		<line style="clip-path:url(#SVGID_00000155849280547567427570000002746969071476186254_);fill:none;stroke:#D2DCEE;stroke-width:2;stroke-linecap:round;" x1="324" y1="165.1" x2="378.6" y2="110.5"/>
</g>
</svg>
