<svg width="31" height="28" viewBox="0 0 31 28" fill="none" xmlns="http://www.w3.org/2000/svg">
<path d="M8.22839 22.9225C8.22839 22.8585 8.6749 22.3146 9.5679 21.2908C10.5247 20.267 11.5772 19.0512 12.7253 17.6434C13.8735 16.2357 14.6708 15.0839 15.1173 14.188C14.1605 14.316 12.821 14.668 11.0988 15.2439C9.37654 15.7558 7.87757 16.2677 6.60185 16.7796C5.32613 17.2275 4.65638 17.4515 4.59259 17.4515C3.44444 17.5794 2.42387 17.3875 1.53086 16.8756C0.701646 16.2997 0.191358 15.7238 0 15.1479C0.127572 14.572 0.542181 13.9641 1.24383 13.3242C2.00926 12.6843 2.99794 12.3004 4.20988 12.1724C4.27366 12.1724 4.97531 12.3324 6.31481 12.6523C7.71811 12.9723 9.28086 13.2922 11.0031 13.6121C12.7891 13.8681 14.1605 13.9641 15.1173 13.9001C14.6708 13.2602 13.9691 12.4923 13.0123 11.5965C12.1193 10.7007 11.2582 9.9008 10.429 9.19692C9.59979 8.49304 8.83436 7.85316 8.13271 7.27726L6.98457 6.31743C6.28292 5.10164 5.96399 4.04583 6.02778 3.14999C6.09156 2.19016 6.34671 1.55027 6.79321 1.23033C7.17593 0.846394 7.87757 0.846394 8.89815 1.23033C9.91872 1.61426 10.7479 2.31814 11.3858 3.34196C11.4496 3.40595 11.6728 4.07783 12.0556 5.3576C12.5021 6.63737 13.0442 8.10911 13.6821 9.77282C14.32 11.4365 14.894 12.7163 15.4043 13.6121C15.787 12.7163 16.1698 11.4045 16.5525 9.67684C16.9352 7.94914 17.2541 6.41341 17.5093 5.06965C17.7644 3.6619 17.9239 2.92603 17.9877 2.86204C18.4342 1.77423 19.1039 1.00637 19.9969 0.558445C20.8899 0.0465381 21.6235 -0.113433 22.1975 0.0785301C22.644 0.334485 22.963 0.942378 23.1543 1.90221C23.4095 2.79805 23.2819 3.85386 22.7716 5.06965C22.7078 5.19763 22.1975 5.77353 21.2407 6.79734C20.3477 7.82116 19.3272 9.03695 18.179 10.4447C17.0309 11.7885 16.2335 12.9083 15.787 13.8041C16.7438 13.6761 18.0833 13.3562 19.8056 12.8443C21.5278 12.2684 23.0267 11.7565 24.3025 11.3086C25.642 10.7966 26.3436 10.5407 26.4074 10.5407C27.5556 10.4127 28.5442 10.6367 29.3735 11.2126C30.2665 11.7245 30.8086 12.3004 31 12.9403C30.8724 13.5162 30.4259 14.124 29.6605 14.7639C28.9588 15.3398 28.0021 15.6918 26.7901 15.8198L24.6852 15.3398C23.2819 15.0199 21.6872 14.7319 19.9012 14.476C18.179 14.22 16.8076 14.1241 15.787 14.188C16.1698 14.6999 16.68 15.3078 17.3179 16.0117C18.0195 16.7156 18.7212 17.3875 19.4228 18.0274C20.1883 18.6033 20.8899 19.1792 21.5278 19.7551C22.2294 20.267 22.8035 20.7149 23.25 21.0988L24.0154 21.6747C24.7171 22.8905 25.036 23.9783 24.9722 24.9381C24.9084 25.834 24.6214 26.4739 24.1111 26.8578C23.6646 27.1777 22.963 27.1458 22.0062 26.7618C21.0494 26.3779 20.2521 25.674 19.6142 24.6502C19.5504 24.5862 19.2953 23.9143 18.8488 22.6345C18.466 21.3548 17.9239 19.883 17.2222 18.2193C16.5844 16.5556 16.0103 15.3078 15.5 14.476C15.1173 15.3718 14.7346 16.6836 14.3519 18.4113C13.9691 20.139 13.6502 21.6747 13.3951 23.0185C13.2037 24.3622 13.0761 25.0661 13.0123 25.1301C12.5658 26.2179 11.8961 27.0178 11.0031 27.5297C10.1101 27.9776 9.37654 28.1056 8.80247 27.9136C8.35597 27.6577 8.00514 27.0818 7.75 26.1859C7.55864 25.2261 7.71811 24.1383 8.22839 22.9225Z" fill="#a6caee"/>
</svg>
