<?xml version="1.0" encoding="utf-8"?>
<!-- Generator: Adobe Illustrator 26.1.0, SVG Export Plug-In . SVG Version: 6.00 Build 0)  -->
<svg version="1.1" id="Layer_1" xmlns="http://www.w3.org/2000/svg" xmlns:xlink="http://www.w3.org/1999/xlink" x="0px" y="0px"
	 viewBox="0 0 1440 619" style="enable-background:new 0 0 1440 619;" xml:space="preserve">
<style type="text/css">
	.st0{fill:none;stroke:url(#SVGID_1_);}
	.st1{fill:none;stroke:url(#SVGID_00000171708084547897605550000000892923120561427871_);}
	.st2{fill:none;stroke:url(#SVGID_00000132090140917626199000000011307052744824718493_);}
	.st3{fill:none;stroke:url(#SVGID_00000092431639997961189680000001978933475134380714_);}
	.st4{fill:none;stroke:url(#SVGID_00000062154207941878397470000003270739734890057893_);}
	.st5{fill:none;stroke:url(#SVGID_00000006674347973259658170000012841654546390951867_);}
	.st6{fill:none;stroke:url(#SVGID_00000026854961348005428390000005647397623940784801_);}
	.st7{fill:none;stroke:url(#SVGID_00000157303874090843591760000005036647845620342669_);}
	.st8{fill:none;stroke:url(#SVGID_00000043448442773571361500000008806472210257121445_);}
	.st9{fill:none;stroke:url(#SVGID_00000173154564395410131280000014632540735861577139_);}
	.st10{fill:none;stroke:url(#SVGID_00000146480971237650159910000002874998175758243223_);}
	.st11{fill:none;stroke:url(#SVGID_00000103959336899672247260000002151771347069612160_);}
</style>
<g>
	
		<linearGradient id="SVGID_1_" gradientUnits="userSpaceOnUse" x1="1122.6992" y1="437.3544" x2="819.983" y2="-317.5789" gradientTransform="matrix(1 0 0 -1 0 620)">
		<stop  offset="0" style="stop-color:#8A4AF8"/>
		<stop  offset="1" style="stop-color:#8A4AF8;stop-opacity:0"/>
	</linearGradient>
	<path class="st0" d="M-4,606.7c402.3-58.8,210.8-505.2,743-195.8c532.2,309.5,519.4,35.2,746-38.7
		c181.3-59.1,386.1,230.3,417.2,252.4"/>
	
		<linearGradient id="SVGID_00000023995432888813074930000010463440380643965319_" gradientUnits="userSpaceOnUse" x1="1072.4036" y1="633.8956" x2="769.6914" y2="-121.0343" gradientTransform="matrix(1 0 0 -1 0 620)">
		<stop  offset="0" style="stop-color:#8A4AF8"/>
		<stop  offset="1" style="stop-color:#8A4AF8;stop-opacity:0"/>
	</linearGradient>
	<path style="fill:none;stroke:url(#SVGID_00000023995432888813074930000010463440380643965319_);" d="M-54.3,410.2
		c402.3-58.8,210.8-505.2,743-195.8c532.2,309.5,519.4,35.2,746-38.7c181.3-59.1,386.1,230.3,417.2,252.4"/>
	
		<linearGradient id="SVGID_00000099656575617566640760000008165488628697845144_" gradientUnits="userSpaceOnUse" x1="1089.4569" y1="537.4478" x2="786.7438" y2="-217.4831" gradientTransform="matrix(1 0 0 -1 0 620)">
		<stop  offset="0" style="stop-color:#8A4AF8"/>
		<stop  offset="1" style="stop-color:#8A4AF8;stop-opacity:0"/>
	</linearGradient>
	<path style="fill:none;stroke:url(#SVGID_00000099656575617566640760000008165488628697845144_);" d="M-37.2,506.6
		C365,447.8,173.6,1.4,705.8,310.8c532.2,309.5,519.4,35.2,746-38.7c181.3-59.1,386.1,230.3,417.2,252.4"/>
	
		<linearGradient id="SVGID_00000106106245306908819270000015394757707160552381_" gradientUnits="userSpaceOnUse" x1="1039.1619" y1="733.9893" x2="736.4512" y2="-20.9393" gradientTransform="matrix(1 0 0 -1 0 620)">
		<stop  offset="0" style="stop-color:#8A4AF8"/>
		<stop  offset="1" style="stop-color:#8A4AF8;stop-opacity:0"/>
	</linearGradient>
	<path style="fill:none;stroke:url(#SVGID_00000106106245306908819270000015394757707160552381_);" d="M-87.5,310.1
		c402.3-58.8,210.8-505.2,743-195.8c532.2,309.5,519.4,35.2,746-38.7c181.3-59.1,386.1,230.3,417.2,252.4"/>
	
		<linearGradient id="SVGID_00000021805061032604170490000008571546198075391142_" gradientUnits="userSpaceOnUse" x1="1136.9562" y1="392.7943" x2="834.2462" y2="-362.1345" gradientTransform="matrix(1 0 0 -1 0 620)">
		<stop  offset="0" style="stop-color:#53D3E0"/>
		<stop  offset="1" style="stop-color:#53D3E0;stop-opacity:0"/>
	</linearGradient>
	<path style="fill:none;stroke:url(#SVGID_00000021805061032604170490000008571546198075391142_);" d="M10.3,651.3
		c402.3-58.8,210.8-505.2,743-195.8c532.2,309.5,519.4,35.2,746-38.7c181.3-59.1,386.1,230.3,417.2,252.4"/>
	
		<linearGradient id="SVGID_00000153701147940866858730000003350133616984656830_" gradientUnits="userSpaceOnUse" x1="1136.9562" y1="392.7943" x2="834.2462" y2="-362.1345" gradientTransform="matrix(1 0 0 -1 0 620)">
		<stop  offset="0" style="stop-color:#53D3E0"/>
		<stop  offset="1" style="stop-color:#53D3E0;stop-opacity:0"/>
	</linearGradient>
	<path style="fill:none;stroke:url(#SVGID_00000153701147940866858730000003350133616984656830_);" d="M10.3,651.3
		c402.3-58.8,210.8-505.2,743-195.8c532.2,309.5,519.4,35.2,746-38.7c181.3-59.1,386.1,230.3,417.2,252.4"/>
	
		<linearGradient id="SVGID_00000175288285171775517890000014715478206421900204_" gradientUnits="userSpaceOnUse" x1="1086.6641" y1="589.3418" x2="783.9443" y2="-165.595" gradientTransform="matrix(1 0 0 -1 0 620)">
		<stop  offset="0" style="stop-color:#53D3E0"/>
		<stop  offset="1" style="stop-color:#53D3E0;stop-opacity:0"/>
	</linearGradient>
	<path style="fill:none;stroke:url(#SVGID_00000175288285171775517890000014715478206421900204_);" d="M-40,454.7
		c402.3-58.8,210.8-505.2,743-195.8c532.2,309.5,519.4,35.2,746-38.7c181.3-59.1,386.1,230.3,417.2,252.4"/>
	
		<linearGradient id="SVGID_00000124849705709764658700000005126683674399323797_" gradientUnits="userSpaceOnUse" x1="1086.6641" y1="589.3418" x2="783.9443" y2="-165.595" gradientTransform="matrix(1 0 0 -1 0 620)">
		<stop  offset="0" style="stop-color:#53D3E0"/>
		<stop  offset="1" style="stop-color:#53D3E0;stop-opacity:0"/>
	</linearGradient>
	<path style="fill:none;stroke:url(#SVGID_00000124849705709764658700000005126683674399323797_);" d="M-40,454.7
		c402.3-58.8,210.8-505.2,743-195.8c532.2,309.5,519.4,35.2,746-38.7c181.3-59.1,386.1,230.3,417.2,252.4"/>
	
		<linearGradient id="SVGID_00000088118423323121172270000001116271054035304068_" gradientUnits="userSpaceOnUse" x1="1103.722" y1="492.8936" x2="801.0007" y2="-262.0445" gradientTransform="matrix(1 0 0 -1 0 620)">
		<stop  offset="0" style="stop-color:#53D3E0"/>
		<stop  offset="1" style="stop-color:#53D3E0;stop-opacity:0"/>
	</linearGradient>
	<path style="fill:none;stroke:url(#SVGID_00000088118423323121172270000001116271054035304068_);" d="M-23,551.2
		c402.3-58.8,210.8-505.2,743-195.8c532.2,309.5,519.4,35.2,746-38.7c181.3-59.1,386.1,230.3,417.2,252.4"/>
	
		<linearGradient id="SVGID_00000005247201487248191560000015622339968573253051_" gradientUnits="userSpaceOnUse" x1="1103.722" y1="492.8936" x2="801.0007" y2="-262.0445" gradientTransform="matrix(1 0 0 -1 0 620)">
		<stop  offset="0" style="stop-color:#53D3E0"/>
		<stop  offset="1" style="stop-color:#53D3E0;stop-opacity:0"/>
	</linearGradient>
	<path style="fill:none;stroke:url(#SVGID_00000005247201487248191560000015622339968573253051_);" d="M-23,551.2
		c402.3-58.8,210.8-505.2,743-195.8c532.2,309.5,519.4,35.2,746-38.7c181.3-59.1,386.1,230.3,417.2,252.4"/>
	
		<linearGradient id="SVGID_00000043428347909081412710000003131927097903454386_" gradientUnits="userSpaceOnUse" x1="1053.4222" y1="689.4365" x2="750.7062" y2="-65.4969" gradientTransform="matrix(1 0 0 -1 0 620)">
		<stop  offset="0" style="stop-color:#53D3E0"/>
		<stop  offset="1" style="stop-color:#53D3E0;stop-opacity:0"/>
	</linearGradient>
	<path style="fill:none;stroke:url(#SVGID_00000043428347909081412710000003131927097903454386_);" d="M-73.3,354.6
		c402.3-58.8,210.8-505.2,743-195.8c532.2,309.5,519.4,35.2,746-38.7C1597.1,61,1801.9,350.4,1833,372.5"/>
	
		<linearGradient id="SVGID_00000163783786542591163610000016460211337204244361_" gradientUnits="userSpaceOnUse" x1="1053.4222" y1="689.4365" x2="750.7062" y2="-65.4969" gradientTransform="matrix(1 0 0 -1 0 620)">
		<stop  offset="0" style="stop-color:#53D3E0"/>
		<stop  offset="1" style="stop-color:#53D3E0;stop-opacity:0"/>
	</linearGradient>
	<path style="fill:none;stroke:url(#SVGID_00000163783786542591163610000016460211337204244361_);" d="M-73.3,354.6
		c402.3-58.8,210.8-505.2,743-195.8c532.2,309.5,519.4,35.2,746-38.7C1597.1,61,1801.9,350.4,1833,372.5"/>
</g>
</svg>
