<?xml version="1.0" encoding="utf-8"?>
<!-- Generator: Adobe Illustrator 26.1.0, SVG Export Plug-In . SVG Version: 6.00 Build 0)  -->
<svg version="1.1" id="Layer_1" xmlns="http://www.w3.org/2000/svg" xmlns:xlink="http://www.w3.org/1999/xlink" x="0px" y="0px"
	 viewBox="0 0 1440 619" style="enable-background:new 0 0 1440 619;" xml:space="preserve">
<style type="text/css">
	.st0{fill:none;stroke:url(#SVGID_1_);}
	.st1{fill:none;stroke:url(#SVGID_00000013875453682651643400000014559108226538404283_);}
	.st2{fill:none;stroke:url(#SVGID_00000008135157286927831090000010483323387470673327_);}
	.st3{fill:none;stroke:url(#SVGID_00000017515524348614760020000001406582493742246811_);}
	.st4{fill:none;stroke:url(#SVGID_00000052804828718288976480000006733660991427780781_);}
	.st5{fill:none;stroke:url(#SVGID_00000104664537329384201240000011123934823496215936_);}
	.st6{fill:none;stroke:url(#SVGID_00000079484187215735672820000013831114157303492773_);}
	.st7{fill:none;stroke:url(#SVGID_00000103248444732044604500000015743606936476640145_);}
	.st8{fill:none;stroke:url(#SVGID_00000100360152256676167320000005707916156814897838_);}
	.st9{fill:none;stroke:url(#SVGID_00000030486660361919920760000010677183344808742284_);}
	.st10{fill:none;stroke:url(#SVGID_00000000910324387918067690000017605518280914838196_);}
	.st11{fill:none;stroke:url(#SVGID_00000068659034798792794200000008607252751984705939_);}
</style>
<g>
	
		<linearGradient id="SVGID_1_" gradientUnits="userSpaceOnUse" x1="2211.4426" y1="168.5823" x2="1908.7352" y2="923.4933" gradientTransform="matrix(-0.5441 -0.839 -0.839 0.5441 1167.1552 1489.2534)">
		<stop  offset="0" style="stop-color:#8A4AF8"/>
		<stop  offset="1" style="stop-color:#8A4AF8;stop-opacity:0"/>
	</linearGradient>
	<path class="st0" d="M-972.4-688.1c35.5,14.1,389.7,28.5,438.8,212.7c61.3,230.3-175.8,368.8,373.4,647
		C388.9,449.8-89.8,532,79.7,901.5"/>
	
		<linearGradient id="SVGID_00000070099345719948305890000002162728732306386324_" gradientUnits="userSpaceOnUse" x1="2161.1406" y1="-27.9167" x2="1858.4373" y2="726.9912" gradientTransform="matrix(-0.5441 -0.839 -0.839 0.5441 1167.1552 1489.2534)">
		<stop  offset="0" style="stop-color:#8A4AF8"/>
		<stop  offset="1" style="stop-color:#8A4AF8;stop-opacity:0"/>
	</linearGradient>
	<path style="fill:none;stroke:url(#SVGID_00000070099345719948305890000002162728732306386324_);" d="M-780.2-752.8
		c35.5,14.1,389.7,28.5,438.8,212.7c61.3,230.3-175.8,368.8,373.4,647c549.2,278.2,70.4,360.4,240,729.9"/>
	
		<linearGradient id="SVGID_00000176728665096630742700000011475434525881300130_" gradientUnits="userSpaceOnUse" x1="2178.2412" y1="68.483" x2="1875.5369" y2="823.3917" gradientTransform="matrix(-0.5441 -0.839 -0.839 0.5441 1167.1552 1489.2534)">
		<stop  offset="0" style="stop-color:#8A4AF8"/>
		<stop  offset="1" style="stop-color:#8A4AF8;stop-opacity:0"/>
	</linearGradient>
	<path style="fill:none;stroke:url(#SVGID_00000176728665096630742700000011475434525881300130_);" d="M-870.3-714.7
		c35.5,14.1,389.7,28.5,438.8,212.7c61.3,230.3-175.8,368.8,373.4,647c549.2,278.2,70.5,360.5,240,729.9"/>
	
		<linearGradient id="SVGID_00000034779539691295894610000014195898682852542613_" gradientUnits="userSpaceOnUse" x1="2127.9399" y1="-128.0164" x2="1825.238" y2="626.8904" gradientTransform="matrix(-0.5441 -0.839 -0.839 0.5441 1167.1552 1489.2534)">
		<stop  offset="0" style="stop-color:#8A4AF8"/>
		<stop  offset="1" style="stop-color:#8A4AF8;stop-opacity:0"/>
	</linearGradient>
	<path style="fill:none;stroke:url(#SVGID_00000034779539691295894610000014195898682852542613_);" d="M-678.1-779.5
		c35.5,14.1,389.7,28.5,438.8,212.7c61.3,230.3-175.8,368.8,373.4,647c549.2,278.2,70.4,360.4,240,729.9"/>
	
		<linearGradient id="SVGID_00000001658593141934237130000003738542503999195827_" gradientUnits="userSpaceOnUse" x1="2225.7395" y1="213.1839" x2="1923.0386" y2="968.0898" gradientTransform="matrix(-0.5441 -0.839 -0.839 0.5441 1167.1552 1489.2534)">
		<stop  offset="0" style="stop-color:#53D3E0"/>
		<stop  offset="1" style="stop-color:#53D3E0;stop-opacity:0"/>
	</linearGradient>
	<path style="fill:none;stroke:url(#SVGID_00000001658593141934237130000003738542503999195827_);" d="M-1017.6-675.9
		c35.5,14.1,389.7,28.5,438.8,212.7c61.3,230.3-175.8,368.8,373.4,647C343.7,462-135,544.2,34.5,913.8"/>
	
		<linearGradient id="SVGID_00000107587164721227419720000004613931173276724925_" gradientUnits="userSpaceOnUse" x1="2225.7395" y1="213.1839" x2="1923.0386" y2="968.0898" gradientTransform="matrix(-0.5441 -0.839 -0.839 0.5441 1167.1552 1489.2534)">
		<stop  offset="0" style="stop-color:#53D3E0"/>
		<stop  offset="1" style="stop-color:#53D3E0;stop-opacity:0"/>
	</linearGradient>
	<path style="fill:none;stroke:url(#SVGID_00000107587164721227419720000004613931173276724925_);" d="M-1017.6-675.9
		c35.5,14.1,389.7,28.5,438.8,212.7c61.3,230.3-175.8,368.8,373.4,647C343.7,462-135,544.2,34.5,913.8"/>
	
		<linearGradient id="SVGID_00000147904510284852960970000017644243510184957068_" gradientUnits="userSpaceOnUse" x1="2175.4441" y1="16.5815" x2="1872.7336" y2="771.4951" gradientTransform="matrix(-0.5441 -0.839 -0.839 0.5441 1167.1552 1489.2534)">
		<stop  offset="0" style="stop-color:#53D3E0"/>
		<stop  offset="1" style="stop-color:#53D3E0;stop-opacity:0"/>
	</linearGradient>
	<path style="fill:none;stroke:url(#SVGID_00000147904510284852960970000017644243510184957068_);" d="M-825.3-740.6
		c35.5,14.1,389.7,28.5,438.8,212.7c61.3,230.3-175.8,368.8,373.4,647C536,397.3,57.3,479.5,226.8,849"/>
	
		<linearGradient id="SVGID_00000183969975681259413930000013385682660952021160_" gradientUnits="userSpaceOnUse" x1="2175.4441" y1="16.5815" x2="1872.7336" y2="771.4951" gradientTransform="matrix(-0.5441 -0.839 -0.839 0.5441 1167.1552 1489.2534)">
		<stop  offset="0" style="stop-color:#53D3E0"/>
		<stop  offset="1" style="stop-color:#53D3E0;stop-opacity:0"/>
	</linearGradient>
	<path style="fill:none;stroke:url(#SVGID_00000183969975681259413930000013385682660952021160_);" d="M-825.3-740.6
		c35.5,14.1,389.7,28.5,438.8,212.7c61.3,230.3-175.8,368.8,373.4,647C536,397.3,57.3,479.5,226.8,849"/>
	
		<linearGradient id="SVGID_00000049909537652793174480000010359313313602807694_" gradientUnits="userSpaceOnUse" x1="2192.4448" y1="113.0811" x2="1889.7329" y2="867.9959" gradientTransform="matrix(-0.5441 -0.839 -0.839 0.5441 1167.1552 1489.2534)">
		<stop  offset="0" style="stop-color:#53D3E0"/>
		<stop  offset="1" style="stop-color:#53D3E0;stop-opacity:0"/>
	</linearGradient>
	<path style="fill:none;stroke:url(#SVGID_00000049909537652793174480000010359313313602807694_);" d="M-915.5-702.4
		c35.5,14.1,389.7,28.5,438.8,212.7c61.3,230.3-175.8,368.8,373.4,647c549.2,278.2,70.4,360.4,240,729.9"/>
	
		<linearGradient id="SVGID_00000087387109461721789300000014046390020294575255_" gradientUnits="userSpaceOnUse" x1="2192.4448" y1="113.0811" x2="1889.7329" y2="867.9959" gradientTransform="matrix(-0.5441 -0.839 -0.839 0.5441 1167.1552 1489.2534)">
		<stop  offset="0" style="stop-color:#53D3E0"/>
		<stop  offset="1" style="stop-color:#53D3E0;stop-opacity:0"/>
	</linearGradient>
	<path style="fill:none;stroke:url(#SVGID_00000087387109461721789300000014046390020294575255_);" d="M-915.5-702.4
		c35.5,14.1,389.7,28.5,438.8,212.7c61.3,230.3-175.8,368.8,373.4,647c549.2,278.2,70.4,360.4,240,729.9"/>
	
		<linearGradient id="SVGID_00000162314118523510105580000017808906681686889867_" gradientUnits="userSpaceOnUse" x1="2142.1934" y1="-83.5197" x2="1839.4785" y2="671.4104" gradientTransform="matrix(-0.5441 -0.839 -0.839 0.5441 1167.1552 1489.2534)">
		<stop  offset="0" style="stop-color:#53D3E0"/>
		<stop  offset="1" style="stop-color:#53D3E0;stop-opacity:0"/>
	</linearGradient>
	<path style="fill:none;stroke:url(#SVGID_00000162314118523510105580000017808906681686889867_);" d="M-723.2-767.2
		c35.5,14.1,389.7,28.5,438.8,212.8c61.3,230.3-175.8,368.8,373.4,647c549.2,278.2,70.4,360.4,240,729.9"/>
	
		<linearGradient id="SVGID_00000119831710187128880680000001049119445931227320_" gradientUnits="userSpaceOnUse" x1="2142.1934" y1="-83.5197" x2="1839.4785" y2="671.4104" gradientTransform="matrix(-0.5441 -0.839 -0.839 0.5441 1167.1552 1489.2534)">
		<stop  offset="0" style="stop-color:#53D3E0"/>
		<stop  offset="1" style="stop-color:#53D3E0;stop-opacity:0"/>
	</linearGradient>
	<path style="fill:none;stroke:url(#SVGID_00000119831710187128880680000001049119445931227320_);" d="M-723.2-767.2
		c35.5,14.1,389.7,28.5,438.8,212.8c61.3,230.3-175.8,368.8,373.4,647c549.2,278.2,70.4,360.4,240,729.9"/>
</g>
</svg>
